<svg width="646" height="698" viewBox="0 0 646 698" fill="none" xmlns="http://www.w3.org/2000/svg">
<path d="M9.10046 578.173V654.306L38.0725 657.689L60.6855 617.169L82.7725 577.611L83.5145 576.27L55.7585 576.984L52.6255 577.059L9.10046 578.173Z" fill="#FF904F"/>
<path d="M38.0725 657.689L67.5085 643.422L85.2875 614.121L107.107 578.173L82.7725 577.611L55.7585 576.984L52.6565 576.908L52.6255 577.059L44.4425 622.4L38.0725 657.689Z" fill="#C4361D"/>
<path opacity="0.37" d="M9.10046 578.173V621.947L44.4415 622.401L45.4925 622.412C45.4925 622.412 51.6665 619.548 60.6845 617.17C67.6925 615.333 76.4225 613.787 85.2865 614.122L107.105 578.174L83.5135 576.272L9.10046 578.173Z" fill="#B0713A"/>
<path d="M508.053 568.456L509.702 574.26L516.092 596.785L523.605 623.286L541.941 630.971L563.976 623.286V570.002L534.097 569.18L508.053 568.456Z" fill="#C4361D"/>
<path opacity="0.37" d="M509.702 574.26L516.092 596.784C536.54 599.562 539.838 608.792 539.838 608.792L563.976 600.124V570.002L534.097 569.181L509.702 574.26Z" fill="#B0713A"/>
<path d="M373.407 592.84L379.777 617.342L400.637 697.518H440.565V597.509L373.407 592.84Z" fill="#FF904F"/>
<path d="M440.565 597.509V697.518L462.343 680.387L467.568 637.402L473.227 590.937L440.565 597.509Z" fill="#C4361D"/>
<path opacity="0.37" d="M373.407 592.84L379.776 617.342C424.445 635.9 439.884 656.652 440.564 657.592C440.574 657.614 440.585 657.624 440.585 657.624C440.585 657.624 447.305 640.461 467.568 637.402L473.226 590.937L440.564 597.509L373.407 592.84Z" fill="#B0713A"/>
<path d="M587.572 29.46C531.309 65.623 357.074 66.891 302.625 43.418C248.177 19.944 262.091 356.827 276.006 383.474C289.921 410.12 411.522 383.474 411.522 383.474L554.903 313.052L587.572 29.46Z" fill="#ADEDEC"/>
<path opacity="0.25" d="M276.006 383.473C271.564 374.966 267.122 334.836 264.904 284.908C280.245 221.629 295.961 163.824 289.388 222.417C277.515 328.252 353.206 351.598 436.319 329.808C509.2 310.701 514.749 127.64 541.03 47.175C560.046 42.635 576.215 36.759 587.573 29.459L554.903 313.051L411.522 383.473C411.522 383.473 364.647 393.742 325.773 395.153L293.968 393.422C285.155 391.656 278.643 388.524 276.006 383.473Z" fill="#82D1D0"/>
<path d="M406.682 599.18L32.8034 583.954L26.7534 464.681L405.473 455.799L406.682 599.18Z" fill="#ADEDEC"/>
<path opacity="0.47" d="M98.1644 586.616L34.7914 584.035C34.0134 582.99 33.2934 581.896 32.6414 580.746L29.1044 511.011C31.6734 500.132 36.3944 490.421 45.2104 484.319C55.6574 477.087 69.0594 477.174 81.5734 477.512C175.04 480.041 268.507 482.569 361.974 485.098C377.671 485.523 395.51 487.015 405.228 499.949C405.45 500.244 405.644 500.554 405.853 500.856L406.683 599.18L358.704 597.226C359.01 596.822 359.322 596.421 359.608 595.999C366.395 586.004 366.974 571.79 361.026 561.224C352.442 545.979 333.98 540.977 317.351 537.921C257.146 526.857 195.69 523.294 134.689 527.332C117.608 528.463 97.5934 532.224 90.1524 548.388C84.9524 559.683 88.2574 573.762 95.6764 583.599C96.4644 584.648 97.3014 585.646 98.1644 586.616Z" fill="#82D1D0"/>
<path d="M589.388 333.036C589.388 333.036 473.231 263.566 455.082 263.566C436.933 263.566 429.673 611.869 440.562 611.869C451.452 611.869 560.349 571.265 563.979 569.997C567.609 568.727 589.388 333.036 589.388 333.036Z" fill="#83DBDA"/>
<path d="M589.388 333.036C589.388 333.036 603.907 236.285 619.637 137.314C635.366 38.3419 659.565 14.2339 634.156 2.8139C608.747 -8.6061 573.659 15.5029 561.559 61.1819C549.459 106.861 533.729 325.106 533.729 325.106L589.388 333.036Z" fill="#83DBDA"/>
<path d="M277.216 336.525C277.216 336.525 100.561 270.544 77.5725 269.275C54.5835 268.006 57.0035 374.591 57.0035 374.591L276.007 383.473L277.216 336.525Z" fill="#83DBDA"/>
<path d="M216.718 316.223C246.967 314.954 242.127 223.596 227.608 169.035C213.088 114.474 186.469 53.568 202.199 23.116C217.929 -7.337 276.007 19.309 302.626 43.418C329.245 67.526 277.217 336.526 277.217 336.526L216.718 316.223Z" fill="#83DBDA"/>
<path opacity="0.45" d="M134.21 348.676C175.268 369.007 230.415 359.241 256.716 320.427C268.084 303.65 273.483 283.279 277.431 263.119C293.249 182.357 288.64 97.3288 264.46 18.8938C278.981 25.4708 292.902 34.6118 302.625 43.4178C329.244 67.5258 277.216 336.526 277.216 336.526L276.006 383.474L57.0024 374.592C57.0024 374.592 55.2404 296.861 69.0464 274.959C82.3944 306.622 104.586 334.008 134.21 348.676Z" fill="#7CCCCB"/>
<path d="M1.72146 453.466C4.23646 520.985 8.60645 581.415 8.60645 581.415C8.60645 581.415 40.0624 592.839 48.5344 580.151C61.0464 561.409 77.5685 269.272 77.5685 269.272C77.5685 269.272 71.3944 265.327 62.5624 261.89C46.3394 255.578 21.1405 250.974 8.60746 275.617C-1.55654 295.6 -1.05154 378.868 1.72146 453.466Z" fill="#DAF5F4"/>
<path d="M1.72144 453.466C4.23644 520.985 8.60643 581.415 8.60643 581.415C8.60643 581.415 40.0624 592.839 48.5344 580.151C61.0464 561.409 77.5684 269.272 77.5684 269.272C77.5684 269.272 71.3944 265.327 62.5624 261.89C60.5734 376.534 51.4624 548.872 30.0244 546.31C18.7374 544.959 9.06944 505.065 1.72144 453.466Z" fill="#B5EBEA"/>
<path d="M396.398 375.226L392.163 516.704C392.163 516.704 40.0634 519.242 30.3844 501.478C20.7044 483.714 18.4364 386.804 35.3754 375.385C52.3144 363.966 396.398 375.226 396.398 375.226Z" fill="#69D6D5"/>
<path opacity="0.45" d="M35.3744 375.384C38.4804 373.29 52.5974 371.959 73.5674 371.181C63.6574 385.145 60.4974 404.624 64.8194 421.73C70.5274 444.32 87.2974 462.574 106.901 473.688C126.504 484.802 148.808 489.539 170.936 492.306C202.34 496.234 234.163 496.471 265.617 493.012C287.413 490.615 309.448 486.299 328.744 475.401C348.039 464.504 364.425 446.158 369.154 423.718C372.819 406.324 368.103 386.721 356.651 374.037C381.038 374.722 396.398 375.225 396.398 375.225L392.163 516.703C392.163 516.703 40.0634 519.241 30.3834 501.477C20.7044 483.713 18.4354 386.804 35.3744 375.384Z" fill="#7CCCCB"/>
<path opacity="0.45" d="M455.082 263.566C456.304 263.566 457.972 263.882 460.018 264.47C473.497 343.984 481.739 426.289 497.48 504.596C501.488 524.533 511.203 549.404 530.605 548.332C549.858 547.269 557.138 521.798 559.32 501.71C573.595 370.303 587.871 238.896 602.146 107.488C606.13 70.8109 611.889 30.7839 631.8 1.8689C632.593 2.1519 633.38 2.46489 634.156 2.81389C659.565 14.2339 635.366 38.3419 619.636 137.314C603.906 236.285 589.387 333.036 589.387 333.036C589.387 333.036 567.607 568.728 563.977 569.997C560.347 571.266 451.451 611.869 440.562 611.869C429.673 611.869 436.933 263.566 455.082 263.566Z" fill="#7CCCCB"/>
<path d="M384.302 396.799C384.302 426.922 384.765 456.418 385.445 483.309C387.197 553.239 390.352 605.529 390.352 605.529C407.286 625.189 440.565 611.873 440.565 611.873L455.078 263.565C455.078 263.565 449.801 262.592 442.669 261.522C429.219 259.501 409.183 257.123 405.627 260.236C400.185 264.991 384.302 288.305 384.302 396.799Z" fill="#DAF5F4"/>
<path d="M385.446 483.308C387.198 553.238 390.352 605.528 390.352 605.528C407.286 625.188 440.566 611.872 440.566 611.872L455.078 263.564C455.078 263.564 449.801 262.591 442.669 261.521C443.359 377.58 449.131 556.674 418.51 580.387C400.628 594.234 391.053 544.635 385.446 483.308Z" fill="#B5EBEA"/>
<g opacity="0.25">
<path d="M231.603 19.9228C233.163 20.7168 234.554 21.7388 235.671 22.9538C262.254 51.8528 271.672 81.3358 264.923 117.846C263.26 126.84 258.321 137.465 247.62 138.586C235.077 139.9 227.532 127.425 223.841 117.22C218.298 101.896 212.756 86.5728 207.213 71.2488C203.44 60.8178 199.625 49.9438 201.639 39.1708C203.099 31.3628 208.604 23.6538 216.435 19.7718C221.116 17.4518 226.953 17.5578 231.603 19.9228Z" fill="#DAF5F4"/>
</g>
<g opacity="0.25">
<path d="M492.947 67.1748C460.678 80.3838 424.693 83.4188 390.827 75.7878C378.453 72.9998 364.694 69.0328 353.839 75.8578C343.726 82.2158 340.175 95.5268 337.475 107.563C330.756 137.52 324.398 170.696 338.459 197.708C352.637 224.944 385.798 237.8 414.792 231.604C443.786 225.407 468.012 202.849 482.203 175.62C496.394 148.391 501.532 116.89 502.516 85.8768C502.66 81.3268 502.629 76.4388 500.166 72.6908C497.702 68.9428 491.854 67.3798 489.038 70.8448L492.947 67.1748Z" fill="#DAF5F4"/>
</g>
<path opacity="0.15" d="M348.259 383.764C316.455 373.232 118.216 363.531 79.6284 385.32C41.0404 407.11 103.374 444.463 199.844 444.463C296.314 444.463 404.657 402.44 348.259 383.764Z" fill="#DAF5F4"/>
</svg>
