<svg width="434" height="705" viewBox="0 0 434 705" fill="none" xmlns="http://www.w3.org/2000/svg">
<path d="M242.379 4.494C242.379 4.494 242.379 4.504 242.367 4.515C242.269 5.326 239.635 26.808 235.829 60.221C234.231 74.213 232.426 90.306 230.523 107.855C229.486 117.394 228.425 127.36 227.339 137.659C225.485 155.239 223.594 173.777 221.741 192.752C220.985 200.471 220.241 208.262 219.497 216.096C217.387 238.503 215.374 261.212 213.581 283.422V283.432C213.288 287.073 212.995 290.693 212.727 294.292C211.617 308.367 210.629 322.171 209.763 335.507C209.336 342.269 208.934 348.906 208.568 355.397C208.458 357.394 208.348 359.392 208.251 361.389C208.19 362.367 208.153 363.334 208.105 364.312C207.154 383.526 206.678 402.427 206.544 420.726C205.751 529.819 217.375 617.42 217.973 621.862C217.973 621.893 217.985 621.924 217.985 621.945C217.997 622.008 218.009 622.039 218.009 622.039L204.909 626.783C204.909 626.783 189.407 588.231 186.54 435.748C186.442 430.079 186.345 424.243 186.284 418.251C186.235 414.589 186.199 410.865 186.174 407.079C185.003 250.3 221.301 50.912 229.388 8.521C229.437 8.282 229.485 8.042 229.522 7.814C229.632 7.19 229.754 6.607 229.851 6.056L229.887 5.869C229.973 5.463 230.046 5.08901 230.107 4.72501C230.192 4.31901 230.266 3.945 230.327 3.601C230.376 3.362 230.412 3.143 230.461 2.935C230.522 2.623 230.571 2.342 230.62 2.092C230.669 1.863 230.705 1.666 230.742 1.478C230.766 1.364 230.791 1.249 230.803 1.155C230.827 1.02 230.852 0.904996 230.876 0.811996C230.937 0.520996 230.961 0.375 230.961 0.375L242.379 4.494Z" fill="#C43A22"/>
<g opacity="0.43">
<path d="M235.83 60.2209C234.232 74.2129 232.427 90.306 230.524 107.855V61.4169L235.83 60.2209Z" fill="#B0574A"/>
<path d="M227.34 137.659C225.486 155.239 223.595 173.777 221.742 192.752V138.939L227.34 137.659Z" fill="#B0574A"/>
<path d="M219.498 216.095C217.388 238.502 215.375 261.211 213.582 283.421V283.431L211.789 285.99V216.833L219.498 216.095Z" fill="#B0574A"/>
<path d="M212.728 294.292C211.618 308.367 210.63 322.171 209.764 335.507C209.337 342.269 208.935 348.906 208.569 355.397C208.459 357.394 208.349 359.392 208.252 361.389H206.374L202.715 295.478L212.728 294.292Z" fill="#B0574A"/>
</g>
<path opacity="0.43" d="M217.973 621.862C217.705 620.583 215.985 611.678 212.228 580.595C208.13 546.641 204.763 488.219 204.763 469.495C204.763 450.771 196.274 458.01 194.81 463.503C193.649 467.858 194.078 504.448 194.493 512.354C194.493 512.354 186.346 424.243 186.284 418.251L206.543 420.727C205.752 529.819 217.375 617.42 217.973 621.862Z" fill="#B0574A"/>
<path opacity="0.43" d="M242.379 4.49403C242.379 4.49403 242.379 4.50403 242.367 4.51503C241.952 5.28503 228.523 30.553 222.181 91.502C215.741 153.419 198.391 316.201 197.885 332.303C197.299 350.903 207.106 356.52 209.765 335.507C209.338 342.269 208.936 348.906 208.57 355.397C208.399 358.372 208.241 361.347 208.106 364.312L192.323 365.134C192.323 365.134 190.567 365.134 201.105 230.315C209.838 118.674 224.584 34.245 229.39 8.52003C229.439 8.28103 229.487 8.04103 229.524 7.81303C229.646 7.18903 229.756 6.60602 229.853 6.05502L229.889 5.86803C229.975 5.46203 230.048 5.08803 230.109 4.72403C230.194 4.31803 230.268 3.94404 230.329 3.60004C230.378 3.36104 230.414 3.14204 230.463 2.93404C230.524 2.62204 230.573 2.34103 230.622 2.09103C230.671 1.86203 230.707 1.65404 230.744 1.47704C230.768 1.36304 230.793 1.24802 230.805 1.15402C230.829 1.01902 230.854 0.904035 230.878 0.811035C230.939 0.520035 230.963 0.374023 230.963 0.374023L242.379 4.49403Z" fill="#B0574A"/>
<path d="M404.563 483.985C406.71 574.998 415.601 641.679 415.601 641.679L402.501 646.568C402.501 646.568 396.842 632.056 391.731 585.9C391.719 585.879 391.719 585.848 391.719 585.827C387.877 551.009 384.328 498.195 383.766 420.06C382.473 241.779 420.65 10.039 422.15 1.03003C422.15 0.988029 422.162 0.957025 422.162 0.926025C422.174 0.811025 422.186 0.759033 422.186 0.759033L433.603 1.31003C433.603 1.31003 416.112 198.815 407.526 342.726C407.05 350.934 406.587 358.965 406.16 366.777C403.917 407.91 403.709 447.867 404.563 483.985Z" fill="#C43A22"/>
<path d="M231.402 34.8281C231.402 34.8281 255.552 37.4501 308.682 37.8241C361.812 38.1981 400.891 34.4541 400.891 34.4541L398.695 63.2901C398.695 63.2901 363.787 64.6011 305.827 64.6011C247.867 64.6011 230.523 61.4181 230.523 61.4181L231.402 34.8281Z" fill="#DE572A"/>
<path d="M222.62 112.349C222.62 112.349 246.77 114.971 299.9 115.345C353.03 115.72 392.109 113.098 392.109 113.098L389.913 140.811C389.913 140.811 355.005 142.122 297.045 142.122C239.085 142.122 221.741 138.939 221.741 138.939L222.62 112.349Z" fill="#DE572A"/>
<path d="M212.686 190.244C212.686 190.244 237.344 192.865 291.593 193.24C345.842 193.615 385.085 193.49 385.085 193.49L382.843 221.203C382.843 221.203 345.518 221.89 286.582 220.329C227.43 218.763 211.79 216.834 211.79 216.834L212.686 190.244Z" fill="#DE572A"/>
<path d="M203.62 268.889C203.62 268.889 228.764 271.127 283.49 272.634C337.893 274.132 377.029 273.945 377.029 273.945L374.766 301.658C374.766 301.658 336.442 301.439 276.958 299.879C217.257 298.313 202.715 295.479 202.715 295.479L203.62 268.889Z" fill="#DE572A"/>
<path d="M204.898 626.72L204.91 626.782L182.663 623.786C182.663 623.786 182.663 623.765 182.651 623.724V623.682L182.639 623.672C182.639 623.651 182.627 623.62 182.627 623.589C181.932 618.419 167.795 512.655 170.369 393.596C170.833 372.364 172.369 346.617 174.614 318.561C185.274 185.292 211.644 0 211.644 0L230.964 0.373993C230.964 0.373993 204.619 225.072 198.032 294.728C195.153 325.177 193.531 366.028 193.056 407.285C192.641 444.402 193.141 481.841 194.495 512.352V512.487C195.08 525.605 195.825 537.422 196.715 547.388C201.557 601.471 204.411 623.161 204.863 626.355C204.875 626.449 204.887 626.532 204.887 626.594L204.899 626.677V626.72H204.898Z" fill="#F57931"/>
<path opacity="0.43" d="M411.43 153.544C407.039 200.356 396.94 357.644 401.331 353.899C404.283 351.382 406.442 345.993 407.527 342.727C407.051 350.935 406.588 358.966 406.161 366.778C403.917 407.91 403.709 447.867 404.563 483.985C403.404 468.6 402.38 454.639 402.209 450.894C401.77 441.532 397.379 432.544 394.305 432.169C391.231 431.794 402.501 646.568 402.501 646.568C402.501 646.568 396.842 632.056 391.731 585.9C391.719 585.879 391.719 585.848 391.719 585.827C388.231 520.633 384.084 423.056 386.84 368.13C391.158 282.069 421.089 10.767 422.15 1.03003C422.15 0.988029 422.162 0.957025 422.162 0.926025C422.174 0.811025 422.186 0.759033 422.186 0.759033L433.603 1.31003C423.286 10.101 415.821 106.732 411.43 153.544Z" fill="#B0574A"/>
<path d="M394.306 564.72C399.575 625.461 402.502 646.568 402.502 646.568L380.255 643.478C380.255 643.478 380.255 643.447 380.243 643.384C380.243 643.322 380.231 643.238 380.219 643.124C379.292 636.185 365.412 527.914 367.961 406.161C368.156 396.747 368.522 386.469 369.022 375.504C369.693 360.961 370.608 345.211 371.705 328.682C380.694 193.697 402.1 7.04205 402.844 0.550049C402.868 0.436049 402.868 0.373047 402.868 0.373047L422.188 0.758041C422.188 0.758041 402.209 232.415 395.623 304.225C393.842 323.709 392.537 347.323 391.696 372.612C391.074 390.921 390.708 410.114 390.562 429.244C390.195 481.041 391.5 532.388 394.306 564.72Z" fill="#F57931"/>
<path opacity="0.43" d="M391.695 372.614C391.073 390.923 390.707 410.116 390.561 429.246C387.121 427.987 378.706 426.26 373.229 436.476C366.374 449.261 379.559 633.971 380.218 643.125C379.291 636.186 365.411 527.915 367.96 406.162C368.155 396.748 368.521 386.47 369.021 375.505L391.695 372.614Z" fill="#B0574A"/>
<path opacity="0.43" d="M173.003 462.004C173.003 485.108 182.358 619.49 182.651 623.682V623.713C182.651 623.703 182.651 623.692 182.639 623.671C182.639 623.65 182.627 623.619 182.627 623.588C181.932 618.418 167.795 512.654 170.369 393.595L193.056 407.285C192.641 444.402 193.141 481.841 194.495 512.352L188.811 450.019C188.811 450.019 173.003 438.535 173.003 462.004Z" fill="#B0574A"/>
<path d="M190.731 549.386L190.567 567.175L43.031 602.19L42.153 581.343L190.731 549.386Z" fill="#FA8743"/>
<path d="M42.153 581.343L43.031 576.974L179.735 547.888L190.731 549.386L42.153 581.343Z" fill="#C43A22"/>
<path d="M391.085 584.089L299.169 629.528L298.876 608.307L390.207 565.365L391.085 584.089Z" fill="#FA8743"/>
<path d="M376.522 565.115L390.207 565.365L298.876 608.307L297.998 601.316L376.522 565.115Z" fill="#C43A22"/>
<path d="M302.974 438.036L373.194 418.905L387.28 415.067V375.37L304.731 396.092L302.974 438.036Z" fill="#DE572A"/>
<path opacity="0.4" d="M43.031 591.954C43.031 591.954 61.41 583.106 110.944 570.608C181.199 552.882 190.566 549.386 190.566 549.386H190.731L42.153 581.343L43.031 591.954Z" fill="#B0574A"/>
<path opacity="0.4" d="M390.207 565.365C390.207 565.365 316.769 605.904 313.842 608.651C310.915 611.397 299.169 629.529 299.169 629.529L298.876 608.308L390.207 565.365Z" fill="#B0574A"/>
<path opacity="0.4" d="M390.207 565.365C390.207 565.365 316.147 597.697 312.634 598.446C309.121 599.195 297.998 601.317 297.998 601.317L298.876 608.308L390.207 565.365Z" fill="#B0574A"/>
<path opacity="0.4" d="M190.731 549.386L58.729 575.507L43.031 576.974L42.153 581.343L190.731 549.386Z" fill="#B0574A"/>
<path d="M33.371 383.859V674.093L9.66003 671.097L8.34302 383.484L33.371 383.859Z" fill="#FF904F"/>
<path d="M47.715 669.225L33.371 674.094V383.859L48.593 384.358L48.431 437.038L47.715 669.225Z" fill="#C4361D"/>
<path opacity="0.43" d="M33.371 674.093C33.371 674.093 37.323 449.395 37.762 441.156C38.201 432.917 48.4301 437.037 48.4301 437.037L48.592 384.357L33.37 383.858L33.371 674.093Z" fill="#B0574A"/>
<path d="M281.605 440.533L280.544 440.449L240.33 437.089L65.913 422.536L36.225 420.06V384.608L275.141 393.887L280.434 394.095L281.605 440.533Z" fill="#DE572A"/>
<path opacity="0.43" d="M305.901 409.574C349.81 394.095 367.374 389.601 373.814 399.088C380.254 408.575 373.193 418.904 373.193 418.904L387.279 415.066V375.369L304.73 396.091L305.901 409.574Z" fill="#DE572A"/>
<path opacity="0.43" d="M254.967 424.055C254.967 394.095 51.813 385.607 51.813 404.082C51.813 412.456 58.546 418.469 65.913 422.536L36.225 420.06V384.608L280.434 394.095L280.544 440.449L240.33 437.089C249.222 434.894 254.967 430.848 254.967 424.055Z" fill="#DE572A"/>
<path d="M36.225 420.06L280.544 440.449C280.544 440.449 197.592 430.046 147.828 426.052C98.064 422.057 36.225 420.06 36.225 420.06Z" fill="#E27161"/>
<path opacity="0.43" d="M33.371 383.859V674.093L30.736 449.021C30.736 449.021 35.6511 423.077 8.44006 405.486L8.34204 383.484L33.371 383.859Z" fill="#B0574A"/>
<path d="M269.164 397.091L269.274 422.385L270.481 700.889L294.192 704.053V397.487L269.164 397.091Z" fill="#FF904F"/>
<path d="M308.536 698.911L294.192 704.053V397.487L309.414 398.014L309.253 453.281L308.536 698.911Z" fill="#C4361D"/>
<path opacity="0.43" d="M293.973 690.821C293.973 690.821 297.925 466.123 298.364 457.884C298.803 449.645 309.253 453.281 309.253 453.281L309.414 398.014L294.192 397.487L293.973 690.821Z" fill="#B0574A"/>
<path opacity="0.43" d="M294.192 397.487L293.973 690.821L292.436 467.652C292.436 467.652 296.485 439.976 269.274 422.385L269.164 397.091L294.192 397.487Z" fill="#B0574A"/>
<path d="M393.281 367.256L369.648 366.882L369.661 364.011L201.983 357.394L194.811 357.894L170.368 357.394L0 374.122L46.989 376.796L302.755 391.349L393.281 367.256Z" fill="#E65F04"/>
<path d="M0 374.122V383.484L302.919 402.022L302.755 391.349L0 374.122Z" fill="#B5361F"/>
<path d="M393.281 367.256L392.824 376.275L302.919 402.022L302.755 391.349L393.281 367.256Z" fill="#A62E19"/>
<path opacity="0.59" d="M46.989 376.796C26.498 373.8 109.774 360.141 221.01 363.636C332.246 367.131 347.469 373.623 322.294 382.111C297.119 390.6 302.754 391.349 302.754 391.349L393.28 367.256L369.647 366.881L369.661 364.01L201.983 357.394L194.811 357.893L170.368 357.394L0 374.122L46.989 376.796Z" fill="#E65F04"/>
<path d="M46.989 376.796C46.989 376.796 80.025 380.863 161.257 385.732C242.489 390.6 302.755 391.349 302.755 391.349L46.989 376.796Z" fill="#E27161"/>
<path d="M8.44104 405.486C8.44104 405.486 13.173 522.922 13.173 537.902C13.173 552.882 9.66003 671.098 9.66003 671.098L8.44104 405.486Z" fill="#E27161"/>
<path d="M269.274 422.385C269.274 422.385 273.775 539.649 273.775 554.629C273.775 569.609 270.482 688.324 270.482 688.324L269.274 422.385Z" fill="#E27161"/>
<path d="M203.495 611.313L204.837 626.022C204.642 624.213 204.142 619.167 203.495 611.313Z" fill="#B0574A"/>
<path d="M204.898 626.678C204.898 626.647 204.898 626.626 204.886 626.595C204.886 626.532 204.874 626.449 204.862 626.356C204.862 626.262 204.85 626.148 204.838 626.023L204.898 626.678Z" fill="#B0574A"/>
<path opacity="0.43" d="M305.097 423.103C305.097 425.585 303.967 427.597 302.572 427.597C301.178 427.597 300.047 425.585 300.047 423.103C300.047 420.621 301.177 418.609 302.572 418.609C303.966 418.609 305.097 420.621 305.097 423.103Z" fill="#B0574A"/>
<path d="M305.097 421.308C305.097 423.79 303.967 425.802 302.572 425.802C301.178 425.802 300.047 423.79 300.047 421.308C300.047 418.826 301.177 416.814 302.572 416.814C303.966 416.815 305.097 418.827 305.097 421.308Z" fill="#920E2B"/>
<path opacity="0.43" d="M302.572 424.164C301.335 424.164 300.311 422.579 300.094 420.489C300.066 420.755 300.048 421.028 300.048 421.308C300.048 423.79 301.178 425.802 302.573 425.802C303.967 425.802 305.098 423.79 305.098 421.308C305.098 421.027 305.079 420.755 305.052 420.489C304.833 422.579 303.808 424.164 302.572 424.164Z" fill="#B0574A"/>
<path opacity="0.67" d="M300.093 420.489C300.093 420.489 300.413 416.877 302.571 416.814C304.73 416.751 305.049 420.489 305.049 420.489C305.049 420.489 304.51 418.343 302.571 418.609C300.632 418.874 300.093 420.489 300.093 420.489Z" fill="#920E2B"/>
<path opacity="0.43" d="M402.886 400.742C402.886 403.224 401.756 405.236 400.361 405.236C398.966 405.236 397.836 403.224 397.836 400.742C397.836 398.26 398.966 396.248 400.361 396.248C401.756 396.248 402.886 398.26 402.886 400.742Z" fill="#B0574A"/>
<path d="M402.886 398.948C402.886 401.43 401.756 403.442 400.361 403.442C398.966 403.442 397.836 401.43 397.836 398.948C397.836 396.466 398.966 394.454 400.361 394.454C401.756 394.454 402.886 396.466 402.886 398.948Z" fill="#920E2B"/>
<path opacity="0.43" d="M400.361 401.804C399.124 401.804 398.1 400.219 397.882 398.129C397.855 398.395 397.836 398.668 397.836 398.948C397.836 401.43 398.966 403.442 400.361 403.442C401.756 403.442 402.886 401.43 402.886 398.948C402.886 398.667 402.867 398.395 402.84 398.129C402.623 400.218 401.598 401.804 400.361 401.804Z" fill="#B0574A"/>
<path opacity="0.67" d="M397.883 398.129C397.883 398.129 398.203 394.517 400.362 394.454C402.521 394.392 402.84 398.129 402.84 398.129C402.84 398.129 402.301 395.983 400.362 396.249C398.422 396.514 397.883 398.129 397.883 398.129Z" fill="#920E2B"/>
<path opacity="0.43" d="M428.189 50.0108C428.189 52.4928 427.059 54.5049 425.664 54.5049C424.27 54.5049 423.139 52.4928 423.139 50.0108C423.139 47.5288 424.269 45.5168 425.664 45.5168C427.059 45.5168 428.189 47.5288 428.189 50.0108Z" fill="#B0574A"/>
<path d="M428.189 48.2169C428.189 50.6989 427.059 52.7109 425.664 52.7109C424.27 52.7109 423.139 50.6989 423.139 48.2169C423.139 45.7349 424.269 43.7229 425.664 43.7229C427.059 43.7229 428.189 45.7349 428.189 48.2169Z" fill="#920E2B"/>
<path opacity="0.43" d="M425.664 51.072C424.427 51.072 423.403 49.487 423.185 47.397C423.158 47.663 423.139 47.936 423.139 48.216C423.139 50.698 424.269 52.71 425.664 52.71C427.059 52.71 428.189 50.698 428.189 48.216C428.189 47.935 428.17 47.663 428.143 47.397C427.926 49.487 426.901 51.072 425.664 51.072Z" fill="#B0574A"/>
<path opacity="0.67" d="M423.186 47.397C423.186 47.397 423.506 43.785 425.665 43.722C427.824 43.66 428.144 47.397 428.144 47.397C428.144 47.397 427.605 45.251 425.665 45.517C423.725 45.782 423.186 47.397 423.186 47.397Z" fill="#920E2B"/>
<path opacity="0.43" d="M238.867 37.2C238.867 37.2 274.873 39.8219 315.708 40.5699C356.544 41.3189 390.793 38.698 390.793 38.698C390.793 38.698 372.351 57.423 317.025 55.925C261.699 54.427 238.867 37.2 238.867 37.2Z" fill="#B0574A"/>
<path opacity="0.43" d="M232.719 115.844C232.719 115.844 268.725 118.466 309.56 119.215C350.396 119.964 384.645 117.343 384.645 117.343C384.645 117.343 366.203 136.068 310.877 134.57C255.552 133.071 232.719 115.844 232.719 115.844Z" fill="#B0574A"/>
<path opacity="0.43" d="M222.466 192.946C222.466 192.946 258.388 196.299 299.191 197.879C339.994 199.459 374.307 197.535 374.307 197.535C374.307 197.535 355.347 215.879 300.079 213.256C244.81 210.632 222.466 192.946 222.466 192.946Z" fill="#B0574A"/>
<path opacity="0.43" d="M215.44 271.216C215.44 271.216 251.362 274.569 292.165 276.149C332.968 277.728 367.281 275.804 367.281 275.804C367.281 275.804 348.321 294.148 293.053 291.525C237.785 288.902 215.44 271.216 215.44 271.216Z" fill="#B0574A"/>
<path d="M211.643 0C211.643 0 186.468 221.827 182.37 256.78C180.223 275.12 177.101 299.514 174.613 318.561C185.273 185.293 211.643 0 211.643 0Z" fill="#E27161"/>
<path d="M402.843 0.552002C402.416 6.221 391.475 146.782 382.01 236.308C377.107 282.725 373.777 311.551 371.704 328.684C380.693 193.698 402.099 7.043 402.843 0.552002Z" fill="#E27161"/>
</svg>
