<svg width="613" height="585" viewBox="0 0 613 585" fill="none" xmlns="http://www.w3.org/2000/svg">
<path d="M559.971 115.761C555.251 141.578 547.667 166.667 543.35 179.939C541.348 186.073 540.05 189.695 540.05 189.695L489.549 179.953L490.858 157.877L499.817 6.73169C499.817 6.73169 519.492 9.40168 537.03 21.0877C549.032 29.0847 560.027 41.2997 563.035 59.7797C565.586 75.4827 563.628 95.8397 559.971 115.761Z" fill="#FF5C76"/>
<g opacity="0.25">
<path d="M559.971 115.761C555.251 141.578 547.667 166.667 543.35 179.939C539.894 181.961 536.236 183.469 532.411 184.341C517.389 187.765 500.388 179.926 493.117 164.01C492.211 162.027 491.473 159.978 490.858 157.876L499.817 6.73071C499.817 6.73071 519.492 9.40073 537.03 21.0867C537.097 21.7347 537.131 22.3687 537.164 23.0167C537.723 34.5437 535.576 45.9777 533.943 57.3597C532.299 68.7417 531.169 80.5587 533.719 91.7157C536.258 102.86 543.215 113.263 552.756 115.761C555.116 116.369 557.588 116.342 559.971 115.761Z" fill="#D64158"/>
</g>
<path d="M510.488 400.275L535.94 502.585H518.698L488.731 408.395L510.488 400.275Z" fill="#BD4F3C"/>
<path d="M521.982 395.403L540.866 495.548L535.94 502.585L510.488 400.275L521.982 395.403Z" fill="#99263A"/>
<path d="M133.229 442.498L106.545 526.944L97.9253 529.651L127.071 440.874L133.229 442.498Z" fill="#99263A"/>
<path d="M344.291 469.884L366.459 578.148L357.838 584.103L327.324 476.379L344.291 469.884Z" fill="#99263A"/>
<path d="M54.4113 395.403C54.4113 395.403 49.4853 422.469 86.4313 436.543C123.377 450.617 330.274 480.39 356.958 478.225C383.641 476.06 397.599 471.729 398.83 437.626L54.4113 395.403Z" fill="#BD4F3C"/>
<path d="M101.209 436.002L82.7363 526.403L97.9253 529.651L127.071 440.874L101.209 436.002Z" fill="#BD4F3C"/>
<path d="M305.293 470.425L341.828 583.02L357.838 584.103L332.797 469.342L305.293 470.425Z" fill="#BD4F3C"/>
<path d="M356.376 472.832C329.812 474.997 123.836 445.225 87.0543 431.15C64.2833 422.437 57.4953 408.749 55.6233 399.582L54.3003 398.751C54.3003 398.751 50.2733 426.594 87.0543 440.668C123.835 454.742 329.811 484.515 356.376 482.35C382.94 480.185 396.836 475.854 398.062 441.751L397.298 441.657C393.898 467.174 380.261 470.885 356.376 472.832Z" fill="#99263A"/>
<path d="M279.581 254.387L238.599 318.327L185.369 401.355L73.2943 395.671L73.0373 394.494L57.0203 322.147L24.0353 173.183C24.0353 173.183 42.5133 161.008 131.793 143.15C181.444 133.209 218.914 131.808 242.381 132.522C261.127 133.09 270.959 135.02 270.959 135.02L279.581 254.387Z" fill="#F56278"/>
<g opacity="0.25">
<path d="M279.581 254.387L238.599 318.327C234.472 320.468 230.255 322.425 226.083 324.381C178.132 346.681 130.181 368.995 82.2303 391.308C79.3333 392.643 76.1453 393.965 73.0363 394.494L57.0193 322.147C56.2703 272.325 51.7513 231.944 50.9913 182.122C60.2743 185.2 60.5313 209.642 67.2203 226.562C73.9093 243.482 84.8923 258.816 99.6463 265.531C118.672 274.203 139.946 267.329 159.487 260.415C188.177 250.25 219.07 238.26 236.139 209.178C249.08 187.142 251.273 157.109 242.38 132.522C261.126 133.09 270.958 135.02 270.958 135.02L279.581 254.387Z" fill="#EB6075"/>
</g>
<path d="M100.797 414.164C84.1093 413.807 49.2783 407.859 31.4273 374.56C13.5643 341.275 -0.5957 186.997 0.0193002 182.939C0.1203 182.252 1.21631 181.26 3.05031 180.19C11.8753 175.021 37.7133 167.843 50.7323 181.855C50.8213 181.934 50.9113 182.027 50.9893 182.119C66.5923 199.449 70.8323 351.017 95.4613 380.244C120.091 409.471 100.797 414.164 100.797 414.164Z" fill="#FF5C76"/>
<g opacity="0.25">
<path d="M100.797 414.164C84.1093 413.807 49.2783 407.859 31.4273 374.56C13.5643 341.275 -0.5957 186.997 0.0193002 182.939C0.1203 182.252 1.21631 181.26 3.05031 180.19C10.1863 201.168 13.7663 224.024 17.6803 246.298C22.9933 276.556 29.6593 307.779 46.3703 331.547C48.0483 333.926 50.1623 336.412 52.7903 336.345C55.2623 336.279 57.3093 333.807 58.1363 331.044C58.9533 328.295 58.7963 325.281 58.6283 322.359C56.0003 275.524 53.3713 228.69 50.7313 181.855C50.8203 181.934 50.9103 182.027 50.9883 182.119C66.5913 199.449 70.8313 351.017 95.4603 380.244C120.091 409.471 100.797 414.164 100.797 414.164Z" fill="#E6465E"/>
</g>
<path d="M50.9903 182.122C50.9903 182.122 112.293 137.733 266.645 144.229V127.719C266.645 127.719 216.152 116.351 133.024 132.591C49.8964 148.831 2.48231 165.07 0.0183105 182.934L50.9903 182.122Z" fill="#FF9EAD"/>
<path d="M482.569 208.108C452.19 233.012 412.785 277.388 367.63 277.388C322.476 277.388 269.111 253.581 269.111 253.581C269.111 253.581 246.942 172.377 260.901 96.5928C273.909 25.9118 296.928 6.08278 319.959 1.98478C321.614 1.68078 323.281 1.4688 324.936 1.3238C345.685 -0.500201 452.1 -1.55823 495.913 5.92377C504.101 7.32477 510.107 9.0168 512.948 11.0658C531.012 24.0608 512.948 183.203 482.569 208.108Z" fill="#FF758B"/>
<g opacity="0.25">
<path d="M482.569 208.108C452.19 233.012 412.785 277.388 367.63 277.388C322.476 277.388 269.111 253.581 269.111 253.581C269.111 253.581 246.942 172.377 260.901 96.5927C273.909 25.9117 296.928 6.08274 319.959 1.98474C287.443 29.5727 268.552 80.0817 276.471 126.89C286.325 185.132 336.379 229.799 386.466 225.067C432.269 220.744 471.831 179.145 488.654 128.622C501.562 89.8908 502.58 47.0477 495.913 5.92374C504.101 7.32474 510.107 9.01677 512.948 11.0658C531.012 24.0608 512.948 183.203 482.569 208.108Z" fill="#E6465E"/>
</g>
<path d="M340.965 276.886C332.341 301.698 302.98 339.649 302.98 339.649L106.647 298.459L86.2233 294.176C86.2233 294.176 128.715 267.646 192.751 255.735C256.797 243.838 257.614 242.754 268.698 243.838C279.783 244.909 326.995 244.367 340.943 258.445C344.41 261.935 343.817 268.69 340.965 276.886Z" fill="#F54A75"/>
<g opacity="0.33">
<path d="M340.965 276.886C335.238 275.392 329.601 272.96 324.019 270.779C252.68 242.874 171.33 253.383 106.646 298.459L86.2223 294.176C86.2223 294.176 128.714 267.646 192.75 255.735C256.796 243.838 257.613 242.754 268.697 243.838C279.782 244.909 326.994 244.367 340.942 258.445C344.41 261.935 343.817 268.69 340.965 276.886Z" fill="#D91C4B"/>
</g>
<path d="M612.094 151.266C612.094 151.266 578.84 351.017 559.132 377.812C541.303 402.042 394.531 449.194 337.498 451.97C331.469 452.274 326.447 452.076 322.678 451.296L344.813 351.057L374.409 217.03C374.409 217.03 382.328 211.875 396.533 204.671C417.069 194.254 450.759 179.542 492.636 169.945C553.763 155.92 598.381 152.192 609.432 151.425C611.188 151.306 612.094 151.266 612.094 151.266Z" fill="#FF758B"/>
<g opacity="0.25">
<path d="M612.094 151.266C612.094 151.266 578.84 351.017 559.132 377.812C541.303 402.042 394.531 449.194 337.498 451.97C337.04 445.532 337.409 438.791 337.934 432.525C340.227 405.374 342.52 378.209 344.813 351.057L374.409 217.03C374.409 217.03 382.328 211.875 396.533 204.671L398.043 205.239C393.793 246.773 391.735 288.624 391.88 330.462C391.947 348.85 392.775 368.48 401.88 383.391C416.823 407.899 447.795 409.392 472.112 400.047C516.595 382.955 550.822 339.042 572.074 289.801C590.731 246.536 600.686 199 609.433 151.426C611.188 151.306 612.094 151.266 612.094 151.266Z" fill="#E85D72"/>
</g>
<path d="M309.054 319.993C309.054 319.993 308.204 338.579 306.604 361.58C304.065 397.879 299.658 445.15 293.775 447.635C284.156 451.706 252.748 442.77 180.313 427.344C107.878 411.918 89.9373 420.576 86.0893 410.014C83.3493 402.506 79.9603 347.026 78.2373 315.657C77.4993 302.227 85.7313 290.356 97.3753 287.884C103.572 286.562 110.104 285.571 116.893 284.857C190.401 277.071 292.835 302.57 309.054 319.993Z" fill="#EB3D68"/>
<g opacity="0.23">
<path d="M306.604 361.579C304.065 397.878 299.658 445.149 293.775 447.634C284.156 451.705 252.748 442.769 180.313 427.343C107.878 411.917 89.9373 420.575 86.0893 410.013C83.3493 402.505 79.9603 347.025 78.2373 315.656C77.4993 302.226 85.7313 290.355 97.3753 287.883C103.572 286.561 110.104 285.57 116.893 284.856C107.553 306.707 110.171 335.841 121.434 356.78C134.386 380.865 156.488 395.194 179.049 401.698C223.386 414.494 272.266 398.962 306.604 361.579Z" fill="#D91C4B"/>
</g>
<path d="M388.625 223.23C386.377 255.511 373.592 430.397 359.622 444.395C344.231 459.822 294.356 447.634 294.356 447.634C296.526 386.761 311.95 259.159 321.749 223.944C323.069 219.225 324.288 216.158 325.351 215.14C332.856 207.936 371.322 211.782 384.532 215.775C385.628 216.106 386.579 216.872 387.284 217.903C388.245 219.317 388.771 221.221 388.625 223.23Z" fill="#FF5C76"/>
<g opacity="0.25">
<path d="M388.625 223.23C386.377 255.511 373.592 430.397 359.622 444.395C344.231 459.822 294.356 447.634 294.356 447.634C296.526 386.761 311.95 259.159 321.749 223.944C319.903 270.567 318.035 317.203 316.19 363.826C315.743 375.009 316.984 389.259 325.999 392.683C331.469 394.745 337.553 391.308 341.222 386.1C344.891 380.879 346.658 374.216 348.347 367.739C361.322 317.798 374.297 267.857 387.283 217.903C388.245 219.317 388.771 221.221 388.625 223.23Z" fill="#E6465E"/>
</g>
<path d="M612.089 151.266C612.089 151.266 584.927 139.537 551.265 142.785C517.603 146.033 345.462 177.249 325.347 215.142L388.627 223.226C388.627 223.226 424.28 195.654 496.53 177.249C568.781 158.845 612.089 151.266 612.089 151.266Z" fill="#FF9EAD"/>
<path opacity="0.67" d="M211.072 127.737C179.623 127.737 66.1683 146.772 33.0933 164.856C0.0183353 182.939 35.5093 175.325 75.7763 162.001C116.043 148.676 179.664 135.352 212.414 136.621C245.164 137.89 233.352 127.737 211.072 127.737Z" fill="#FFADBB"/>
<path opacity="0.67" d="M387.439 185.794C359.005 197.426 366.165 219.74 396.533 204.671C426.901 189.601 529.458 157.347 569.445 154.386C609.432 151.425 565.418 140.11 504.213 157.241C443.007 174.373 408.378 177.228 387.439 185.794Z" fill="#FFADBB"/>
</svg>
