<svg width="392" height="745" viewBox="0 0 392 745" fill="none" xmlns="http://www.w3.org/2000/svg">
<path d="M241.603 574.758C241.645 579.439 237.879 583.267 233.198 583.319H233.115C232.335 583.319 231.575 583.215 230.858 583.017C230.203 582.83 229.568 582.57 228.986 582.237C226.416 580.801 224.669 578.065 224.638 574.913L220.737 151.077C220.706 147.862 222.474 145.043 225.096 143.587C225.679 143.254 226.313 142.994 226.968 142.817C227.665 142.63 228.393 142.526 229.142 142.515H229.225C233.865 142.515 237.662 146.26 237.703 150.92L241.603 574.758Z" fill="#CF331B"/>
<path opacity="0.71" d="M229.88 574.91L225.978 151.079C225.943 147.283 228.406 144.048 231.833 142.933C231.009 142.666 230.132 142.517 229.219 142.517H229.14C224.455 142.56 220.692 146.393 220.735 151.079L224.637 574.91C224.68 579.567 228.469 583.315 233.118 583.315H233.197C234.087 583.307 234.943 583.16 235.746 582.899C232.371 581.804 229.914 578.653 229.88 574.91Z" fill="#DE572A"/>
<path d="M237.109 574.758C237.14 578.701 233.395 577.972 233.364 574.758L229.463 150.922C229.432 147.76 227.674 145.024 225.094 143.588C224.407 143.193 223.648 142.901 222.847 142.725C223.43 142.6 224.022 142.527 224.647 142.517H224.73C225.5 142.517 226.249 142.621 226.967 142.819C230.535 143.786 233.177 147.042 233.209 150.923L237.109 574.758Z" fill="#CF331B"/>
<path d="M195.581 514.521C114.581 514.521 28.495 492.575 28.495 451.906C28.495 411.237 114.582 389.291 195.581 389.291C276.58 389.291 362.667 411.237 362.667 451.906C362.667 492.575 276.58 514.521 195.581 514.521ZM195.581 405.085C153.91 405.085 114.846 410.625 85.583 420.682C59.725 429.571 44.286 441.243 44.286 451.907C44.286 462.571 59.724 474.243 85.583 483.131C114.846 493.19 153.911 498.728 195.581 498.728C237.251 498.728 276.317 493.19 305.579 483.131C331.437 474.243 346.876 462.57 346.876 451.907C346.876 441.243 331.438 429.572 305.579 420.682C276.316 410.625 237.252 405.085 195.581 405.085Z" fill="#DE572A"/>
<path d="M195.581 744.497C144.732 744.497 96.771 736.095 60.532 720.84C21.497 704.408 0 681.477 0 656.272C0 631.067 21.497 608.136 60.532 591.704C96.771 576.449 144.733 568.047 195.581 568.047C246.429 568.047 294.391 576.449 330.63 591.704C369.665 608.136 391.162 631.067 391.162 656.272C391.162 681.477 369.665 704.408 330.63 720.84C294.391 736.095 246.429 744.497 195.581 744.497ZM195.581 588.402C147.383 588.402 102.226 596.236 68.429 610.464C37.877 623.326 20.354 640.022 20.354 656.272C20.354 672.522 37.877 689.218 68.429 702.08C102.226 716.307 147.383 724.142 195.581 724.142C243.779 724.142 288.936 716.308 322.733 702.08C353.285 689.218 370.808 672.522 370.808 656.272C370.808 640.022 353.285 623.326 322.733 610.464C288.936 596.236 243.779 588.402 195.581 588.402Z" fill="#CF331B"/>
<path d="M326.574 601.339C328.84 595.955 335.173 593.579 340.423 596.139C373.245 612.144 391.162 633.259 391.162 656.271C391.162 681.477 369.665 704.407 330.63 720.839C294.391 736.094 246.429 744.496 195.581 744.496C144.733 744.496 96.771 736.094 60.532 720.839C21.497 704.407 0 681.476 0 656.271C0 633.259 17.917 612.144 50.739 596.139C55.99 593.578 62.322 595.954 64.588 601.339C66.687 606.325 64.506 612.072 59.642 614.441C34.541 626.667 20.353 641.65 20.353 656.272C20.353 672.522 37.876 689.218 68.428 702.08C102.225 716.307 147.382 724.142 195.58 724.142C243.778 724.142 288.935 716.308 322.732 702.08C353.284 689.218 370.807 672.522 370.807 656.272C370.807 641.65 356.619 626.667 331.518 614.441C326.656 612.072 324.475 606.325 326.574 601.339Z" fill="#CF331B"/>
<path d="M68.2529 597.695C102.42 582.44 147.639 574.038 195.58 574.038C243.521 574.038 288.74 582.44 322.908 597.695C358.858 613.747 379.019 636 379.935 660.516C379.957 659.934 379.979 659.353 379.979 658.769C379.979 633.563 359.711 610.633 322.908 594.2C288.741 578.945 243.522 570.543 195.58 570.543C147.638 570.543 102.42 578.945 68.2529 594.2C31.4499 610.632 11.1819 633.563 11.1819 658.769C11.1819 659.353 11.2039 659.935 11.2259 660.516C12.1419 636 32.3039 613.746 68.2529 597.695Z" fill="#CF331B"/>
<path d="M61.7709 710.069C97.3369 724.296 144.859 732.131 195.581 732.131C246.303 732.131 293.824 724.297 329.391 710.069C361.543 697.207 379.984 680.511 379.984 664.261C379.984 663.679 379.954 663.096 379.907 662.513C378.639 678.207 360.392 694.172 329.392 706.574C293.826 720.801 246.304 728.636 195.582 728.636C144.86 728.636 97.3389 720.802 61.7719 706.574C30.7719 694.173 12.5249 678.207 11.2569 662.513C11.2099 663.096 11.1799 663.679 11.1799 664.261C11.1789 680.511 29.6189 697.207 61.7709 710.069Z" fill="#CF331B"/>
<path d="M322.733 600.976C288.936 586.749 243.779 578.914 195.581 578.914C147.383 578.914 102.226 586.749 68.429 600.976C37.877 613.838 20.354 630.534 20.354 646.784C20.354 648.362 20.524 649.945 20.851 651.528C23.886 636.814 40.845 622.076 68.43 610.464C102.227 596.236 147.384 588.402 195.582 588.402C243.78 588.402 288.937 596.236 322.734 610.464C350.319 622.076 367.278 636.815 370.313 651.528C370.639 649.945 370.81 648.363 370.81 646.784C370.808 630.534 353.285 613.838 322.733 600.976Z" fill="#DE572A"/>
<path d="M15.78 640.322C20.254 640.322 23.997 636.822 24.243 632.3L51.39 133.477C51.645 128.799 48.058 124.799 43.38 124.545C38.697 124.302 34.703 127.875 34.448 132.555L7.301 631.378C7.046 636.056 10.633 640.056 15.311 640.31C15.468 640.318 15.625 640.322 15.78 640.322Z" fill="#DE572A"/>
<path opacity="0.71" d="M20.873 632.3L48.02 133.477C48.252 129.22 45.299 125.534 41.241 124.712C41.931 124.572 42.646 124.507 43.381 124.545C48.059 124.799 51.646 128.799 51.391 133.477L24.244 632.3C23.998 636.822 20.255 640.322 15.781 640.322C15.626 640.322 15.469 640.318 15.312 640.309C14.901 640.287 14.501 640.226 14.109 640.147C17.796 639.394 20.659 636.235 20.873 632.3Z" fill="#DE572A"/>
<path d="M12.5449 631.378L39.6919 132.555C39.9469 127.876 43.9409 124.302 48.6239 124.545C49.0449 124.568 49.4529 124.631 49.8539 124.712C46.1519 125.461 43.2769 128.61 43.0619 132.555L15.9149 631.378C15.6829 635.644 12.2899 636.056 12.5449 631.378Z" fill="#CF331B"/>
<path d="M375.549 640.322C371.075 640.322 367.332 636.822 367.086 632.3L339.939 133.477C339.684 128.799 343.271 124.799 347.949 124.545C352.632 124.302 356.626 127.875 356.881 132.555L384.028 631.378C384.283 636.056 380.696 640.056 376.018 640.31C375.861 640.318 375.704 640.322 375.549 640.322Z" fill="#DE572A"/>
<path opacity="0.71" d="M370.456 632.3L343.309 133.477C343.077 129.22 346.03 125.534 350.088 124.712C349.398 124.572 348.683 124.507 347.948 124.545C343.27 124.799 339.684 128.799 339.938 133.477L367.085 632.3C367.331 636.822 371.074 640.322 375.548 640.322C375.703 640.322 375.86 640.318 376.017 640.309C376.428 640.287 376.828 640.226 377.22 640.147C373.533 639.394 370.67 636.235 370.456 632.3Z" fill="#DE572A"/>
<path d="M378.784 631.378L351.637 132.555C351.382 127.876 347.388 124.302 342.705 124.545C342.284 124.568 341.876 124.631 341.475 124.712C345.177 125.461 348.052 128.61 348.267 132.555L375.414 631.378C375.646 635.644 379.039 636.056 378.784 631.378Z" fill="#CF331B"/>
<g opacity="0.71">
<path d="M195.581 509.528C116.257 509.528 32.067 488.478 28.618 449.41C28.545 450.235 28.495 451.065 28.495 451.907C28.495 492.576 114.582 514.522 195.582 514.522C276.582 514.522 362.668 492.576 362.668 451.907C362.668 451.066 362.618 450.235 362.545 449.41C359.095 488.478 274.905 509.528 195.581 509.528Z" fill="#DE572A"/>
<path d="M305.579 415.689C276.316 405.632 237.251 400.092 195.581 400.092C153.911 400.092 114.846 405.632 85.583 415.689C59.725 424.578 44.286 436.25 44.286 446.913C44.286 447.74 44.39 448.573 44.573 449.41C46.753 439.45 61.729 428.882 85.583 420.682C114.846 410.625 153.911 405.085 195.581 405.085C237.251 405.085 276.316 410.625 305.579 420.682C329.433 428.882 344.409 439.45 346.589 449.41C346.772 448.573 346.876 447.74 346.876 446.913C346.876 436.25 331.437 424.578 305.579 415.689Z" fill="#DE572A"/>
</g>
<path d="M164.997 151.743L155.073 723.609C154.99 728.238 151.214 731.942 146.595 731.942H146.439C145.492 731.921 144.577 731.755 143.734 731.443H143.724C142.996 731.183 142.32 730.829 141.706 730.403C139.49 728.832 138.055 726.231 138.107 723.308L148.031 151.452C148.083 148.633 149.498 146.168 151.63 144.659C152.244 144.222 152.909 143.868 153.627 143.608C153.637 143.608 153.637 143.608 153.637 143.608C154.532 143.286 155.499 143.108 156.508 143.108H156.664C161.346 143.193 165.081 147.062 164.997 151.743Z" fill="#CF331B"/>
<path d="M159.255 151.743L149.331 723.609C149.268 727.229 145.284 726.428 145.336 723.609L155.26 151.743C155.312 148.81 153.866 146.209 151.63 144.659C150.777 144.055 149.82 143.608 148.78 143.359C149.425 143.203 150.08 143.109 150.767 143.109H150.923C151.87 143.13 152.785 143.296 153.628 143.609C153.638 143.609 153.638 143.609 153.638 143.609C156.967 144.805 159.317 148.019 159.255 151.743Z" fill="#CF331B"/>
<path opacity="0.71" d="M141.603 723.313L151.529 151.448C151.599 147.417 154.472 144.093 158.258 143.297C157.742 143.189 157.21 143.124 156.663 143.114C156.613 143.113 156.564 143.113 156.513 143.113C151.896 143.113 148.114 146.815 148.034 151.449L138.108 723.314C138.027 727.999 141.758 731.862 146.443 731.944C146.493 731.945 146.543 731.945 146.593 731.945C147.193 731.945 147.778 731.879 148.343 731.761C144.435 730.944 141.531 727.451 141.603 723.313Z" fill="#DE572A"/>
<path d="M195.581 156.431C290.809 156.431 368.006 139.643 368.006 118.934C368.006 98.2249 290.809 81.437 195.581 81.437C100.353 81.437 23.156 98.2249 23.156 118.934C23.156 139.643 100.353 156.431 195.581 156.431Z" fill="#DE572A"/>
<path d="M372.333 68.886C372.333 90.773 368.006 103.319 368.006 103.319C368.006 124.031 290.808 140.821 195.582 140.821C100.356 140.821 23.158 124.031 23.158 103.319C23.158 103.319 19.08 87.205 19.59 65.318C20.1 43.431 23.158 37.491 23.158 37.491H368.007C368.007 37.491 368.007 37.501 368.017 37.522C368.276 38.094 372.333 47.685 372.333 68.886Z" fill="#FFA13A"/>
<path opacity="0.45" d="M195.581 140.821C100.355 140.821 23.1571 124.031 23.1571 103.319C23.1571 103.319 19.0791 87.205 19.5891 65.318C20.0991 43.431 23.1571 37.491 23.1571 37.491H368.006C368.006 37.491 368.006 37.501 368.016 37.522C368.37 38.781 372.656 85.666 166.766 85.666C-42.2029 85.666 88.5791 140.821 195.581 140.821Z" fill="#FFA13A"/>
<path d="M368.006 37.491C368.006 58.203 290.808 74.9929 195.582 74.9929C100.356 74.9929 23.158 58.203 23.158 37.491C23.158 16.779 100.356 0 195.582 0C283.485 0 356.022 14.2929 366.664 32.7889C367.548 34.3289 368.006 35.899 368.006 37.491Z" fill="#FEC541"/>
<path opacity="0.36" d="M368.006 37.491C368.006 58.203 290.808 74.9929 195.582 74.9929C100.356 74.9929 23.158 58.203 23.158 37.491C23.158 16.779 100.356 0 195.582 0C195.582 0 93.6149 4.15097 68.8979 29.991C44.181 55.831 226.186 78.301 332.918 50.214C349.906 45.741 360.631 39.7379 366.664 32.7889C367.548 34.3289 368.006 35.899 368.006 37.491Z" fill="#FEC541"/>
<path opacity="0.85" d="M198.577 71.9969C103.351 71.9969 26.153 55.207 26.153 34.495C26.153 32.277 27.044 30.105 28.742 27.994C25.101 31.027 23.157 34.21 23.157 37.491C23.157 58.203 100.355 74.9929 195.581 74.9929C280.609 74.9929 351.258 61.606 365.416 43.994C346.077 60.106 278.714 71.9969 198.577 71.9969Z" fill="#FED577"/>
<path opacity="0.71" d="M195.581 152.436C101.547 152.436 25.103 136.066 23.201 115.716C23.177 116.773 23.156 117.835 23.156 118.934C23.156 139.643 100.353 156.431 195.581 156.431C290.809 156.431 368.006 139.643 368.006 118.934C368.006 117.874 367.986 116.843 367.954 115.829C365.781 136.126 289.441 152.436 195.581 152.436Z" fill="#DE572A"/>
<path d="M330.63 711.353C294.391 726.608 246.429 735.01 195.581 735.01C144.733 735.01 96.771 726.608 60.532 711.353C23.976 695.964 2.80299 674.876 0.260986 651.558C0.0929863 653.12 0 654.691 0 656.272C0 681.478 21.497 704.408 60.532 720.84C96.771 736.095 144.733 744.497 195.581 744.497C246.429 744.497 294.391 736.095 330.63 720.84C369.665 704.408 391.162 681.477 391.162 656.272C391.162 654.691 391.069 653.12 390.901 651.558C388.359 674.876 367.186 695.964 330.63 711.353Z" fill="#DE572A"/>
<path opacity="0.45" d="M368.006 96.578C368.006 117.29 290.808 134.08 195.582 134.08C100.356 134.08 23.158 117.29 23.158 96.578C23.158 96.578 19.951 83.89 19.583 65.744C19.136 87.412 23.158 103.318 23.158 103.318C23.158 124.03 100.356 140.82 195.582 140.82C290.808 140.82 368.006 124.03 368.006 103.318C368.006 103.318 372.333 90.772 372.333 68.885C372.333 67.725 372.319 66.607 372.296 65.516C371.887 85.312 368.006 96.578 368.006 96.578Z" fill="#FFA13A"/>
</svg>
