<svg width="594" height="589" viewBox="0 0 594 589" fill="none" xmlns="http://www.w3.org/2000/svg">
<path d="M292.153 492.013C292.153 492.013 289.491 495.332 282.484 492.677C282.484 492.677 260.852 382.491 257.431 329.8C254.637 286.761 246.144 210.952 242.037 182.649C241.116 176.302 226.985 167.87 226.985 167.87L274.536 167.709C274.536 167.709 263.361 175.366 261.765 188.861C260.169 202.355 269.405 249.156 278.129 315.181C286.626 379.505 292.153 492.013 292.153 492.013Z" fill="#F57931"/>
<path opacity="0.43" d="M285.434 492.086C285.434 492.086 263.801 381.9 260.381 329.209C257.587 286.17 249.094 210.361 244.987 182.058C244.21 176.702 234.027 169.862 230.865 167.856L226.985 167.869C226.985 167.869 241.116 176.301 242.037 182.648C246.144 210.951 254.637 286.759 257.431 329.799C260.852 382.49 282.484 492.676 282.484 492.676C286.492 494.195 289.073 493.758 290.553 493.107C289.195 493.128 287.51 492.873 285.434 492.086Z" fill="#B0574A"/>
<path d="M13.062 537.169C13.062 537.169 6.065 540.901 0 536.703C0 536.703 4.03199 429.86 17.094 347.757C30.156 265.655 43.6841 179.354 39.4861 165.826C35.2881 152.298 27.3569 147.633 27.3569 147.633L71.6741 157.896C71.6741 157.896 61.411 160.695 58.146 175.623C54.881 190.551 46.4841 286.648 39.4861 356.155C32.4881 425.662 13.062 537.169 13.062 537.169Z" fill="#F57931"/>
<path opacity="0.43" d="M66.094 156.603C62.803 158.585 57.636 163.156 55.49 172.966C52.225 187.894 43.8281 283.991 36.8301 353.498C29.8331 423.005 10.406 534.513 10.406 534.513C10.406 534.513 5.313 537.213 0.052002 535.404C0.017002 536.253 0 536.702 0 536.702C6.064 540.9 13.062 537.168 13.062 537.168C13.062 537.168 32.4891 425.66 39.4861 356.153C46.4831 286.646 54.88 190.549 58.146 175.621C61.412 160.693 71.6741 157.894 71.6741 157.894L66.094 156.603Z" fill="#B0574A"/>
<path d="M29.2351 149.052C28.8281 148.586 28.4399 148.176 28.0669 147.797L27.3569 147.633C27.3569 147.633 28.0961 148.072 29.2351 149.052Z" fill="#A87545"/>
<path d="M263.93 164.63C263.93 164.63 191.749 166.341 144.882 159.499C98.015 152.657 36.439 138.973 30.623 137.947C24.807 136.921 10.7819 136.237 9.75485 137.263C8.72885 138.289 5.30794 143.763 16.9389 148.21C28.5699 152.657 74.069 163.262 114.778 169.078C155.487 174.894 239.3 177.63 252.642 176.604C265.982 175.577 263.93 164.63 263.93 164.63Z" fill="#F57931"/>
<path opacity="0.43" d="M252.936 173.062C239.594 174.088 155.781 171.352 115.072 165.536C74.363 159.72 28.8639 149.115 17.2329 144.668C11.8049 142.593 9.65699 140.294 9.01199 138.328C7.96699 140.382 7.57201 144.627 16.938 148.208C28.569 152.655 74.0681 163.26 114.777 169.076C155.486 174.892 239.299 177.628 252.641 176.602C263.91 175.735 264.196 167.791 264.013 165.343C263.226 168.541 260.669 172.467 252.936 173.062Z" fill="#B0574A"/>
<path d="M564.036 53.33C564.174 117.244 535.98 180.708 488.452 223.45C448.037 259.797 371.086 332.074 358.69 339.096C357.911 339.538 357.141 339.966 356.376 340.379C334.929 352.091 320.323 353.939 320.323 353.939C246.825 351.924 104.685 340.635 39.517 332.596C34.633 328.03 30.9358 322.158 28.4418 315.629C21.7278 298.078 23.705 275.794 34.538 261.431C49.4 241.727 74.1109 231.788 98.4669 227.797C122.822 223.801 147.719 224.842 172.264 222.285C196.814 219.729 222.072 212.977 240.16 196.186C265.08 173.057 271.096 136.619 277.135 103.16C283.169 69.697 292.857 33.093 321.303 14.472C342.703 0.465015 369.918 0 395.494 0H509.696C523.066 0 550.605 0.0810227 555.684 5.23602C567.219 16.959 564.003 36.882 564.036 53.33Z" fill="#DEB102"/>
<g opacity="0.35">
<path d="M509.695 0.00195312H503.256C520.599 36.718 522.609 80.6609 507.793 118.549C490.336 163.189 450.02 198.173 403.366 209.164C378.858 214.938 351.315 213.85 330.753 199.319C309.194 184.083 299.01 156.211 300.099 129.834C301.187 103.457 312.135 78.399 325.845 55.839C337.276 37.029 350.684 19.5 362.945 1.22296C348.078 2.78796 333.712 6.35295 321.303 14.4749C292.857 33.0949 283.169 69.6989 277.135 103.163C271.096 136.622 265.081 173.059 240.16 196.189C222.072 212.98 196.814 219.732 172.264 222.288C167.051 222.831 161.821 223.207 156.585 223.508C157.452 227.153 158.793 230.67 160.714 233.94C169.942 249.658 189.171 255.987 206.897 260.225C282.918 278.4 362.609 280.968 439.674 267.965C457.496 251.634 475 235.553 488.454 223.453C535.981 180.71 564.175 117.247 564.038 53.3329C564.005 36.8839 567.221 16.962 555.685 5.23996C550.604 0.0829597 523.065 0.00195312 509.695 0.00195312Z" fill="#C9A002"/>
</g>
<path d="M356.379 340.385C345.671 346.224 336.673 349.617 330.342 351.535C323.986 353.477 320.323 353.944 320.323 353.944C306.96 353.575 291.323 352.899 274.309 352.002C206.179 348.375 115.736 341.049 59.0391 334.853C51.9701 334.078 45.4301 333.316 39.5171 332.591C34.6371 328.03 30.9359 322.154 28.4409 315.626C30.7519 307.008 38.2509 299.595 46.7949 296.129C58.0189 291.58 70.5829 292.22 82.6799 292.933C82.6799 292.933 241.228 300.174 316.169 311.963C318.542 312.332 320.939 312.725 323.324 313.168C330.171 314.447 336.908 316.254 342.846 319.807C350.183 324.207 356.109 331.952 356.379 340.385Z" fill="#C9A002"/>
<path opacity="0.35" d="M330.342 351.536C323.986 353.478 320.323 353.945 320.323 353.945C306.96 353.576 291.323 352.9 274.309 352.003C283.504 347.577 299.719 338.222 293.253 329.813C284.402 318.306 128.62 309.455 85.249 304.144C46.033 299.337 31.2931 312.614 59.0391 334.853C51.9701 334.078 45.4301 333.316 39.5171 332.591C34.6371 328.03 30.9359 322.154 28.4409 315.626C30.7519 307.008 38.2509 299.595 46.7949 296.129C58.0189 291.58 70.5829 292.22 82.6799 292.933C82.6799 292.933 241.228 300.174 316.169 311.963C318.542 312.332 320.939 312.725 323.324 313.168L330.342 351.536Z" fill="#C9A002"/>
<path d="M463.959 239.235C463.959 239.235 389.141 300.321 348.143 309.406C326.408 314.213 304.157 315.233 281.82 314.52C263.195 313.93 244.509 312.147 226.008 310.34C177.474 305.607 128.927 300.874 80.393 296.141C77.479 295.858 74.4918 295.526 71.5048 295.108C56.2858 292.957 40.8449 288.445 34.0839 275.869C26.1429 261.08 35.6948 242.136 50.4218 233.223C65.1498 224.31 83.3929 222.909 100.825 221.999C222.061 215.705 343.987 221.483 463.959 239.235Z" fill="#B4A301"/>
<g opacity="0.24">
<path d="M463.959 239.235C463.959 239.235 389.141 300.321 348.143 309.406C326.408 314.213 304.157 315.233 281.82 314.52C280.025 311.127 279.189 307.107 279.57 303.308C280.455 294.58 286.036 287.068 291.986 280.614C308.398 262.825 329.358 249.278 352.322 241.619C270.521 229.744 187.394 226.941 104.966 233.284C91.911 234.292 63.3279 235.731 54.8579 245.725C47.9369 253.9 46.879 265.8 49.486 276.188C51.133 282.691 58.4729 289.76 71.5039 295.107C56.2849 292.956 40.844 288.444 34.083 275.868C26.142 261.079 35.6939 242.135 50.4209 233.222C65.1489 224.309 83.3919 222.908 100.824 221.998C222.061 215.705 343.987 221.483 463.959 239.235Z" fill="#B4A301"/>
</g>
<path d="M569.756 35.6559C564.912 127.795 563.585 209.325 544.444 299.584C541.125 315.246 536.896 332.002 524.725 342.39C511.473 353.7 486.48 352.163 469.073 352.348C419.481 352.877 369.902 353.405 320.323 353.946C312.271 318.627 305.62 286.135 337.14 268.285C349.433 261.327 376.086 253.779 396.677 247.89C404.188 245.751 410.9 243.821 415.806 242.235C463.492 226.77 492.271 221.779 514.682 176.945C543.436 119.424 548.157 60.8209 554.746 12.0289C555.053 9.74193 555.361 7.47992 555.68 5.24292C564.728 6.04092 570.445 22.6619 569.756 35.6559Z" fill="#E3C13B"/>
<g opacity="0.48">
<path d="M569.756 35.6559C564.912 127.795 563.585 209.325 544.444 299.584C541.125 315.246 536.896 332.002 524.725 342.39C511.473 353.7 486.48 352.163 469.073 352.348C419.481 352.877 369.902 353.405 320.323 353.946C312.271 318.627 305.62 286.135 337.14 268.285C349.433 261.327 376.086 253.779 396.677 247.89C395.743 251.812 394.759 255.745 394.145 259.716C390.162 285.397 402.75 312.873 424.78 326.641C446.822 340.397 477.039 339.647 498.356 324.809C522.365 308.102 532.679 278.045 539.662 249.635C558.717 172.162 576.641 17.0679 555.68 5.24194C564.728 6.04094 570.445 22.6619 569.756 35.6559Z" fill="#DBBA39"/>
</g>
<path d="M572.669 174.379C572.669 174.379 524.434 176.431 484.922 171.3C445.411 166.169 368.953 147.182 359.716 146.498C350.48 145.814 339.533 145.814 338.848 147.524C338.164 149.235 335.769 154.708 348.085 159.041C360.401 163.374 407.267 176.944 458.923 183.101C510.579 189.259 567.937 188.232 572.954 187.32C577.971 186.409 579.226 174.664 572.669 174.379Z" fill="#F57931"/>
<path d="M339.703 586.944C339.703 586.944 332.006 591.049 325.335 586.431C325.335 586.431 329.953 471.488 344.321 381.175C358.689 290.862 373.57 195.931 368.952 181.05C364.334 166.169 355.61 161.037 355.61 161.037L404.358 172.326C404.358 172.326 393.069 175.405 389.477 191.825C385.885 208.246 376.648 313.952 368.951 390.41C361.254 466.868 339.703 586.944 339.703 586.944Z" fill="#F57931"/>
<path opacity="0.43" d="M398.105 170.879C394.531 172.885 388.41 177.866 385.937 189.171C382.345 205.592 373.108 311.298 365.412 387.756C357.715 464.214 336.163 584.289 336.163 584.289C336.163 584.289 330.944 587.061 325.376 585.466C325.349 586.09 325.336 586.431 325.336 586.431C332.007 591.049 339.704 586.944 339.704 586.944C339.704 586.944 361.256 466.869 368.953 390.412C376.65 313.955 385.887 208.247 389.479 191.827C393.071 175.407 404.36 172.328 404.36 172.328L398.105 170.879Z" fill="#B0574A"/>
<path d="M593.023 529.301C593.023 529.301 590.212 533.282 582.418 529.985C582.418 529.985 559.498 413.331 556.077 357.228C553.283 311.402 544.79 230.685 540.683 200.549C539.762 193.791 525.631 184.813 525.631 184.813L573.182 184.642C573.182 184.642 562.007 192.795 560.411 207.163C558.815 221.531 568.051 271.363 576.774 341.663C585.273 410.152 593.023 529.301 593.023 529.301Z" fill="#F57931"/>
<path opacity="0.43" d="M587.73 529.1C587.73 529.1 564.81 412.446 561.389 356.343C558.595 310.517 550.102 229.8 545.995 199.664C545.245 194.163 535.746 187.193 532.236 184.789L525.632 184.813C525.632 184.813 539.763 193.791 540.684 200.549C544.791 230.685 553.284 311.401 556.078 357.228C559.499 413.331 582.419 529.985 582.419 529.985C587.466 532.12 590.414 531.203 591.872 530.292C590.681 530.128 589.313 529.77 587.73 529.1Z" fill="#B0574A"/>
<path opacity="0.43" d="M574.612 182.993C569.594 183.905 524.998 186.933 462.975 177.793C392.902 167.466 371.523 161.203 354.99 154.78C344.737 150.797 339.077 146.953 338.848 147.526C338.164 149.237 335.769 154.71 348.085 159.043C360.4 163.376 407.267 176.946 458.923 183.103C510.579 189.261 567.936 188.234 572.954 187.322C576.378 186.699 578.043 181.036 576.677 177.409C576.419 181.001 575.353 182.858 574.612 182.993Z" fill="#B0574A"/>
</svg>
