<svg width="507" height="764" viewBox="0 0 507 764" fill="none" xmlns="http://www.w3.org/2000/svg">
<path d="M191.447 690.935C190.282 702.128 186.89 735.958 185.164 753.06C184.55 759.218 184.155 763.203 184.155 763.203H178.766C178.766 763.203 170.111 745.352 168.623 733.94C167.146 722.528 171.796 720.208 173.699 705.197C175.603 690.196 176.019 656.388 171.795 622.797C167.572 589.196 157.855 513.974 155.317 489.466C152.779 464.957 153.84 452.172 153.84 452.172C153.84 452.172 160.508 437.431 170.027 429.473C172.492 427.413 175.145 425.801 177.923 425.021C177.923 425.021 177.965 425.656 178.048 426.841C178.412 432.147 179.536 448.406 180.95 467.422C182.875 493.699 185.329 525.25 187.015 540.386C190.178 568.912 193.028 675.726 191.447 690.935Z" fill="#C4361D"/>
<path opacity="0.43" d="M185.164 753.06C184.55 759.218 184.155 763.203 184.155 763.203H178.766C178.766 763.203 170.111 745.352 168.623 733.94C167.146 722.528 171.796 720.208 173.699 705.197C175.603 690.196 176.019 656.388 171.795 622.797C167.572 589.196 157.855 513.974 155.317 489.466C152.779 464.957 153.84 452.172 153.84 452.172C153.84 452.172 160.508 437.431 170.027 429.473L178.047 426.841C178.411 432.147 179.535 448.406 180.949 467.422L178.504 477.845C166.021 477.346 161.028 494.822 162.525 512.798C164.023 530.774 174.009 595.687 177.005 628.642C180.001 661.598 181.249 702.792 177.005 712.03C172.761 721.267 169.016 728.757 172.262 740.741C175.507 752.725 181.853 735.945 181.302 729.6L185.164 753.06Z" fill="#B0574A"/>
<path d="M209.828 446.576C209.828 446.576 206.437 464.583 204.117 498.35C203.264 510.708 202.567 525.178 202.224 541.656C200.955 603.146 200.955 724.212 199.051 733.72C197.158 743.239 192.404 760.986 189.865 763.201H184.154C184.154 763.201 181.626 747.67 181.304 729.6C180.992 711.541 185.423 714.391 186.058 686.179C186.692 657.977 188.066 608.003 182.147 535.736C176.238 463.479 177.923 425.02 177.923 425.02L209.828 446.576Z" fill="#FF904F"/>
<path d="M278.611 658.012C278.288 661.229 267.355 663.248 263.87 657.88C263.87 657.88 263.87 657.809 263.849 657.668C263.839 657.553 263.828 657.386 263.818 657.166C263.194 649.603 257.805 583.399 254.518 549.243C251.033 512.99 245.967 451.227 245.967 444.784L266.669 446.476C266.669 446.476 268.146 493.924 271.953 554.619C275.469 610.722 278.444 648.694 278.621 656.663V656.734C278.642 657.351 278.632 657.774 278.611 658.012Z" fill="#C4361D"/>
<path opacity="0.43" d="M278.621 656.663V656.734L278.611 658.012C278.611 658.012 265.14 456.331 259.647 456.754C250.461 457.459 262.945 644.165 263.819 657.166C263.195 649.603 257.806 583.399 254.519 549.243C251.034 512.99 245.968 451.227 245.968 444.784L266.67 446.476C266.67 446.476 268.147 493.924 271.954 554.619C275.469 610.723 278.444 648.695 278.621 656.663Z" fill="#B0574A"/>
<path d="M261.602 365.862H239.413C239.413 365.862 239.725 362.159 239.871 357.02C240.1 348.667 239.913 336.506 237.301 330.358C236.021 327.362 234.929 324.096 234.003 320.996C231.881 313.829 230.747 307.545 230.747 307.545L253.987 283.036C253.779 300.357 255.891 316.418 260.333 330.15C264.765 343.881 261.602 365.862 261.602 365.862Z" fill="#C4361D"/>
<path opacity="0.43" d="M261.602 365.862H239.413C239.413 365.862 239.725 362.159 239.871 357.02C242.482 356.77 252.52 355.314 256.089 347.522C260.208 338.534 251.969 336.849 249.161 322.992C246.352 309.136 244.293 309.51 239.237 314.566C237.209 316.594 235.419 318.935 234.004 320.995C231.882 313.828 230.748 307.544 230.748 307.544L253.988 283.035C253.78 300.356 255.892 316.417 260.334 330.149C264.765 343.881 261.602 365.862 261.602 365.862Z" fill="#B0574A"/>
<path d="M276.072 180.663C276.072 208.293 272.66 231.844 266.824 251.828C244.718 327.424 187.764 351.808 148.66 351.808C99.2157 351.808 21.2476 314.722 3.17862 173.048C-8.05638 84.896 11.6257 39.4469 44.3627 17.6949C64.2317 4.47295 88.9277 0 114.435 0C177.185 0 276.072 48.497 276.072 180.663Z" fill="#69D6D5"/>
<path opacity="0.45" d="M266.825 251.828C244.719 327.424 187.765 351.808 148.661 351.808C133.182 351.808 114.904 348.178 96.5536 338.836C84.9446 332.927 73.2936 324.74 62.3086 313.734C35.1676 286.593 12.0117 242.32 3.17973 173.048C-8.05527 84.896 11.6267 39.4469 44.3637 17.6949C9.80569 54.9259 -9.02228 107.096 18.2217 211.205C39.1937 291.347 78.1407 304.08 58.9167 258.391C26.4087 181.141 3.30365 91.3659 62.4746 31.4459L269.415 165.443C269.415 165.443 272.879 197.473 264.89 233.924C260.822 252.493 263.36 254.407 266.825 251.828Z" fill="#7CCCCB"/>
<path opacity="0.74" d="M96.5536 338.836C84.9446 332.927 73.2936 324.74 62.3086 313.734C62.5686 303.102 65.9386 290.64 65.9386 290.64C73.6466 295.592 84.1337 307.576 87.1287 312.569C89.0947 315.856 93.6616 329.723 96.5536 338.836Z" fill="#7CCCCB"/>
<path d="M43.1187 58.6349C20.6747 107.68 30.4407 217.107 83.6877 285.567C136.935 354.027 196.52 329.939 220.608 313.458C244.696 296.977 269.417 250.069 269.417 165.445C269.417 80.8209 206.662 32.3279 156.268 13.3119C105.873 -5.70514 60.2327 21.2359 43.1187 58.6349Z" fill="#AFF0EF"/>
<path d="M91.5046 373.677C91.5046 373.677 85.2336 355.688 83.7926 343.673C82.5246 333.108 81.8907 326.558 80.2007 315.993C78.5107 305.428 65.9386 290.637 65.9386 290.637L75.2356 380.438L91.5046 373.677Z" fill="#D9563F"/>
<path d="M83.6857 374.631L59.2806 383.182C59.2806 383.182 47.5566 328.984 46.2876 310.925C45.0186 292.856 39.7336 283.452 39.7336 283.452C55.7956 282.609 65.9376 290.64 65.9376 290.64C65.9376 290.64 68.1536 292.752 69.2146 299.94C69.6306 302.811 69.7036 306.109 69.9636 310.499C70.3386 317.104 71.1386 326.197 74.1766 340.084C77.4016 354.793 80.3656 364.759 82.1036 370.075C83.0926 373.123 83.6857 374.631 83.6857 374.631Z" fill="#C4361D"/>
<path opacity="0.43" d="M46.2876 310.925C45.0186 292.856 39.7336 283.452 39.7336 283.452C55.7956 282.609 65.9376 290.64 65.9376 290.64C65.9376 290.64 68.1536 292.752 69.2146 299.94C69.6306 302.811 69.7036 306.109 69.9636 310.499C65.5736 302.447 57.6677 297.131 51.4257 298.65C44.4977 300.335 54.9837 348.832 59.6647 361.004C62.9097 369.451 75.0087 370.325 82.1027 370.075C83.0907 373.123 83.6836 374.631 83.6836 374.631L59.2787 383.182C59.2807 383.182 47.5566 328.984 46.2876 310.925Z" fill="#B0574A"/>
<path d="M95.0967 454.356C95.0967 454.356 94.1496 468.045 90.5506 485.136C88.2416 496.101 84.8397 508.468 79.8877 519.53C67.2067 547.815 49.8757 587.198 37.6217 618.357C31.8167 633.112 29.3306 647.136 28.3216 657.819C27.1986 669.701 27.9056 677.44 27.9056 677.44L17.3367 682.446C17.3367 682.446 16.4946 649.145 27.4796 608.688C38.4646 568.221 62.1306 539.222 69.7456 504.846C77.3496 470.47 78.1926 443.613 78.1926 443.613L95.0967 454.356Z" fill="#D9563F"/>
<path opacity="0.43" d="M95.0967 454.356C95.0967 454.356 94.1496 468.045 90.5506 485.136C87.1176 481.02 80.8037 483.946 79.6387 492.505C78.1407 503.505 56.8986 557.405 42.1886 583.046C27.4796 608.687 21.8406 652.856 24.6496 658.409C25.5446 660.181 26.8966 659.528 28.3216 657.818C27.1986 669.7 27.9056 677.439 27.9056 677.439L17.3367 682.445C17.3367 682.445 16.4946 649.144 27.4796 608.687C38.4646 568.22 62.1306 539.221 69.7456 504.845C77.3496 470.469 78.1926 443.612 78.1926 443.612L95.0967 454.356Z" fill="#B0574A"/>
<path d="M78.7227 480.623C78.0157 485.541 77.0277 490.989 75.6537 496.965C67.2067 533.853 46.9216 559.45 34.2406 596.514C27.4896 616.258 23.1306 639.352 20.5406 656.628C18.2626 671.78 17.3367 682.445 17.3367 682.445L6.35168 677.791C6.35168 677.791 8.88963 632.679 19.8746 596.153C30.8596 559.626 48.1907 523.108 55.3687 497.326C62.5567 471.544 58.9677 452.567 58.9677 452.567L78.1917 443.612C78.1917 443.612 82.3427 455.176 78.7227 480.623Z" fill="#C4361D"/>
<path opacity="0.43" d="M78.7227 480.623C75.1647 480.949 64.3877 482.888 60.0397 494.197C54.7967 507.842 36.4466 556.708 30.8286 573.526C25.2116 590.344 11.3547 646.192 12.8527 656.98C13.7997 663.829 17.7736 660.197 20.5406 656.627C18.2626 671.779 17.3367 682.444 17.3367 682.444L6.35168 677.79C6.35168 677.79 8.88963 632.678 19.8746 596.152C30.8596 559.625 48.1907 523.107 55.3687 497.325C62.5567 471.543 58.9677 452.566 58.9677 452.566L78.1917 443.611C78.1917 443.611 82.3427 455.176 78.7227 480.623Z" fill="#B0574A"/>
<path d="M488.266 731.984L483.065 729.456C479.965 727.948 477.854 724.931 477.614 721.487C477.426 718.793 476.397 715.058 473.214 710.429C466.244 700.286 456.413 674.352 453.459 649.844C450.494 625.335 449.121 599.662 454.198 565.426C459.264 531.201 464.341 491.265 460.856 478.272C457.361 465.269 438.345 438.336 438.345 438.336L463.072 435.798C463.072 435.798 474.962 455.886 479.196 468.785C479.602 470.012 479.935 471.178 480.184 472.249C480.818 475.006 481.12 478.834 481.11 483.567C481.068 494.552 479.269 510.375 475.815 528.902C474.098 538.171 471.955 548.105 469.407 558.456C459.587 598.392 459.899 631.035 464.653 655.44C465.777 661.203 467.42 667.06 469.324 672.761C475.472 691.205 484.408 708.078 487.789 715.339C492.23 724.848 488.266 731.984 488.266 731.984Z" fill="#C4361D"/>
<path opacity="0.43" d="M488.266 731.984L483.065 729.456C479.965 727.948 477.854 724.931 477.614 721.487C477.426 718.793 476.397 715.058 473.214 710.429C466.244 700.286 456.413 674.352 453.459 649.844C450.494 625.335 449.121 599.662 454.198 565.426C459.264 531.201 464.341 491.265 460.856 478.272C457.361 465.269 438.345 438.336 438.345 438.336L463.072 435.798C463.072 435.798 474.962 455.886 479.196 468.785L481.11 483.567C481.068 494.552 479.269 510.375 475.815 528.902L471.238 532.897C474.234 508.929 474.609 492.077 468.617 478.221C462.625 464.364 465.621 492.452 463.374 510.053C461.127 527.654 452.514 574.466 452.514 602.179C452.514 629.892 454.387 669.214 463.749 683.07C468.336 689.853 469.418 682.269 469.325 672.761C475.473 691.205 484.409 708.078 487.79 715.339C492.23 724.848 488.266 731.984 488.266 731.984Z" fill="#B0574A"/>
<path opacity="0.43" d="M183.249 488.332C183.249 500.316 189.241 556.49 190.739 611.167C192.237 665.843 188.866 704.791 186.994 717.524C185.122 730.257 192.393 740.566 199.051 733.721C197.158 743.24 192.404 760.987 189.865 763.202H184.154C184.154 763.202 181.626 747.671 181.304 729.601C180.992 711.542 185.423 714.392 186.058 686.18C186.692 657.978 188.066 608.004 182.147 535.737C176.238 463.48 177.923 425.021 177.923 425.021L209.828 446.575C209.828 446.575 206.437 464.582 204.117 498.349C194.651 479.064 183.249 476.993 183.249 488.332Z" fill="#B0574A"/>
<path d="M494.446 690.935C504.911 706.154 503.32 717.878 501.103 722.955C498.887 728.021 492.074 731.984 492.074 731.984H488.266C488.266 731.984 486.841 717.566 477.645 703.616C468.46 689.666 454.832 664.003 458.629 616.775C462.436 569.547 477.333 510.917 477.01 492.848C476.698 474.778 452.293 436.112 452.293 436.112L485.571 414.245C485.571 414.245 502.902 439.815 505.856 466.435C508.81 493.056 480.921 572.511 476.697 614.34C475.053 630.61 475.792 643.519 477.925 654.099C481.202 670.358 487.766 681.156 494.028 690.321C494.165 690.529 494.31 690.727 494.446 690.935Z" fill="#FF904F"/>
<path opacity="0.43" d="M494.446 690.935C504.911 706.154 503.32 717.878 501.103 722.955C498.887 728.021 492.074 731.984 492.074 731.984H488.266C488.266 731.984 486.841 717.566 477.645 703.616C468.46 689.666 454.832 664.003 458.629 616.775C462.436 569.547 477.333 510.917 477.01 492.848C476.698 474.778 452.293 436.112 452.293 436.112L485.571 414.245C485.571 414.245 502.902 439.815 505.856 466.435C499.573 452.381 483.355 451.653 480.182 472.25C480.182 472.25 484.593 484.338 482.595 503.312C480.598 522.286 461.124 581.707 462.622 630.141C464.12 678.576 474.606 685.566 481.596 692.557C486.933 697.894 493.257 695.22 494.027 690.32C494.165 690.529 494.31 690.727 494.446 690.935Z" fill="#B0574A"/>
<path d="M492.126 416.575C483.887 419.737 461.49 446.42 461.49 446.42C461.49 446.42 445.48 440.241 436.451 440.241C427.411 440.241 407.292 450.696 393.654 454.815C380.027 458.934 362.28 461.473 329.324 458.934C296.358 456.396 248.922 448.261 241.734 448.261C234.556 448.261 212.367 456.084 211.525 456.084C211.525 456.084 186.694 430.254 175.76 432.314C164.827 434.374 153.415 457.353 153.415 457.353C144.854 456.084 138.674 449.27 138.674 449.27C135.033 449.905 96.6777 458.299 95.8877 458.622C95.7107 458.695 93.7237 458.695 90.7277 458.653H90.7177C80.2937 458.476 57.6887 457.623 56.5867 456.396C55.1617 454.815 47.4006 436.433 46.4436 421.849C45.6846 410.219 47.5566 393.023 58.2616 382.048C60.9556 379.27 64.2227 376.888 68.1547 375.099C87.6497 366.226 107.779 367.547 107.779 367.547C107.779 367.547 113.74 365.987 121.854 364.686C126.057 364.01 130.842 363.406 135.669 363.115C149.827 362.262 164.193 364.8 164.193 364.8C201.383 361.003 225.36 364.165 225.36 364.165C286.85 355.614 301.425 361.637 301.425 361.637C330.584 356.883 360.377 362.261 360.377 362.261C360.377 362.261 386.373 357.195 414.263 359.099C428.806 360.087 438.002 364.446 443.474 368.388H443.484C448.508 371.998 450.391 375.264 450.391 375.264C450.391 375.264 476.377 373.038 487.477 383.18C498.565 393.325 492.126 416.575 492.126 416.575Z" fill="#69D6D5"/>
<path opacity="0.45" d="M492.126 416.575C483.887 419.737 461.49 446.42 461.49 446.42C461.49 446.42 445.48 440.241 436.451 440.241C427.411 440.241 407.292 450.696 393.654 454.815C380.027 458.934 362.28 461.473 329.324 458.934C296.358 456.396 248.922 448.261 241.734 448.261C234.556 448.261 212.367 456.084 211.525 456.084C211.525 456.084 186.694 430.254 175.76 432.314C164.827 434.374 153.415 457.353 153.415 457.353C144.854 456.084 138.674 449.27 138.674 449.27C136.293 449.685 149.42 408.22 163.776 386.095C171.368 374.394 184.498 374.985 184.498 374.985C171.266 387.967 212.46 429.911 212.46 429.911C212.46 429.911 224.943 422.421 238.425 425.417C251.907 428.413 302.339 443.393 351.773 443.393C401.206 443.393 421.929 416.429 436.409 419.425C450.89 422.421 459.128 425.417 459.128 425.417C459.128 425.417 491.584 383.473 450.39 375.266C450.39 375.266 476.376 373.04 487.476 383.182C498.565 393.325 492.126 416.575 492.126 416.575Z" fill="#7CCCCB"/>
<path d="M175.76 432.314C164.827 434.374 153.415 457.353 153.415 457.353C144.854 456.084 138.674 449.27 138.674 449.27C135.033 449.905 96.6777 458.299 95.8877 458.622C95.0967 458.934 58.0117 457.988 56.5867 456.396C55.1617 454.815 47.4006 436.433 46.4436 421.849C45.6846 410.219 47.5566 393.023 58.2616 382.048C58.7086 381.59 59.1767 381.132 59.6557 380.717C62.0587 378.491 64.8777 376.587 68.1547 375.099C87.6497 366.226 107.779 367.547 107.779 367.547C107.779 367.547 113.74 365.987 121.854 364.686C154.227 367.359 184.499 374.985 184.499 374.985C150.543 398.703 175.76 432.314 175.76 432.314Z" fill="#3DCCCB"/>
<path d="M450.39 375.266L442.151 383.474C442.151 383.474 433.662 376.983 399.209 374.486C364.755 371.989 329.303 384.473 329.303 384.473C329.303 384.473 317.319 382.975 289.357 377.982C261.395 372.989 222.447 389.966 222.447 389.966C220.45 386.471 204.471 374.986 184.498 374.986C164.525 374.986 152.541 383.474 152.541 383.474C152.541 383.474 79.1396 368.494 59.2806 383.183L58.2616 382.049C60.9556 379.271 64.2227 376.889 68.1547 375.1C80.5547 369.462 93.2147 367.933 100.778 367.569C105.116 367.371 107.779 367.548 107.779 367.548C107.779 367.548 121.511 363.959 135.668 363.116C149.826 362.263 164.192 364.801 164.192 364.801C201.382 361.004 225.359 364.166 225.359 364.166C286.849 355.615 301.424 361.638 301.424 361.638C329.948 356.988 359.086 362.033 360.334 362.252C360.345 362.252 360.365 362.262 360.376 362.262C360.376 362.262 386.372 357.196 414.262 359.1C442.151 361.004 450.39 375.266 450.39 375.266Z" fill="#AFF0EF"/>
<path d="M269.394 163.467C268.907 246.491 244.597 292.648 220.89 308.964C215.569 312.626 208.503 316.661 200.155 319.975C201.705 314.023 209.988 276.251 199.978 180.247C188.993 74.8889 168.021 57.412 168.021 57.412C168.021 57.412 194.111 112.338 198.605 198.472C202.651 276.022 196.832 314.708 195.632 321.65C184.166 325.598 170.649 327.983 156.091 326.371C162.8 283.116 150.529 146.178 87.0046 49.797C87.0046 49.797 128.574 119.828 142.805 203.715C155.703 279.746 152.399 319.065 151.667 325.763C130.305 322.229 106.979 309.803 84.7626 281.072C36.7216 218.945 24.2826 123.083 39.0686 69.224C22.1756 122.093 33.9916 221.669 83.6885 285.566C136.936 354.026 196.521 329.938 220.609 313.457C244.697 296.976 269.419 250.068 269.419 165.444C269.417 164.781 269.401 164.127 269.394 163.467Z" fill="#A6EBFF"/>
<path opacity="0.25" d="M206.094 55.4149C238.606 81.1219 262.268 134.059 258.898 186.863C255.528 239.667 240.922 273.372 226.317 272.248C211.712 271.124 224.444 167.015 219.202 130.314C213.958 93.6129 189.99 42.6819 206.094 55.4149Z" fill="#DAF5F4"/>
<path opacity="0.25" d="M65.6576 62.156C49.7986 82.34 39.8177 150.912 74.6457 231.803C109.474 312.694 142.055 286.854 139.808 255.396C137.561 223.938 128.199 165.517 107.227 114.585C86.2547 63.654 73.8966 51.67 65.6576 62.156Z" fill="#DAF5F4"/>
<path opacity="0.25" d="M124.828 26.204C148.151 20.68 182.5 114.585 189.241 170.759C195.982 226.934 193.735 257.642 178.006 257.642C162.277 257.642 154.038 168.512 146.548 137.803C139.059 107.095 96.3656 32.945 124.828 26.204Z" fill="#DAF5F4"/>
<path opacity="0.45" d="M175.76 432.314C164.827 434.374 153.415 457.353 153.415 457.353C144.854 456.084 138.674 449.27 138.674 449.27C135.033 449.905 96.6777 458.299 95.8877 458.622C95.0967 458.934 58.0117 457.988 56.5867 456.396C55.1617 454.815 47.4006 436.433 46.4436 421.849C45.6846 410.219 47.5566 393.023 58.2616 382.048C58.7086 381.59 59.1767 381.132 59.6557 380.717L59.2807 383.182C59.2807 383.182 48.4307 403.322 57.4187 424.293C66.4067 445.265 85.1316 445.639 93.7446 444.141C102.359 442.643 136.812 433.281 136.812 433.281C137.561 381.6 184.498 374.984 184.498 374.984C150.543 398.703 175.76 432.314 175.76 432.314Z" fill="#7CCCCB"/>
<path opacity="0.53" d="M450.39 375.266L442.151 383.474C442.151 383.474 433.662 376.983 399.209 374.486C364.755 371.989 329.303 384.473 329.303 384.473C329.303 384.473 317.319 382.975 289.357 377.982C261.395 372.989 222.447 389.966 222.447 389.966C220.45 386.471 204.471 374.986 184.498 374.986C164.525 374.986 152.541 383.474 152.541 383.474C152.541 383.474 79.1396 368.494 59.2806 383.183L58.2616 382.049C60.9556 379.271 64.2227 376.889 68.1547 375.1C80.5547 369.462 93.2147 367.933 100.778 367.569L107.779 367.548C107.779 367.548 128.948 368.869 149.92 376.734C149.92 376.734 167.522 366.997 190.366 367.746C213.21 368.495 222.947 378.607 222.947 378.607C222.947 378.607 250.66 367.746 275.002 368.87C299.344 369.994 316.196 373.739 316.196 373.739C316.196 373.739 345.116 362.535 382.003 366.405C377.592 365.864 366.805 364.418 360.376 362.265C360.376 362.265 386.372 357.199 414.262 359.103C442.151 361.004 450.39 375.266 450.39 375.266Z" fill="#AFF0EF"/>
<path opacity="0.19" d="M232.308 396.581C245.744 386.131 270.881 379.354 293.351 384.597C315.821 389.84 326.681 393.959 333.797 392.461C340.912 390.963 365.255 380.477 392.219 381.975C419.183 383.473 438.657 388.716 441.652 393.21C444.648 397.704 432.664 414.931 393.342 427.289C354.02 439.647 333.423 420.548 329.303 420.174C325.183 419.799 304.961 428.413 277.248 425.791C249.535 423.17 218.827 407.067 232.308 396.581Z" fill="#69D6D5"/>
<path d="M263.331 696.281C263.32 696.141 263.309 695.936 263.299 695.667L264.337 695.606C264.358 695.883 264.37 696.095 264.37 696.24L263.331 696.281Z" fill="#B0574A"/>
<path d="M78.7227 480.623C78.7227 480.623 74.2707 507.524 55.1707 548.141C36.0717 588.758 20.7377 622.957 20.5397 656.628C20.5397 656.628 24.1566 613.97 53.2976 558.612C76.5176 514.505 78.7227 480.623 78.7227 480.623Z" fill="#E27161"/>
<path d="M178.506 477.846C178.506 477.846 175.51 495.822 180.004 551.247C184.498 606.672 185.871 673.187 186.059 686.18C186.059 686.18 189.991 666.217 186.246 583.454C182.5 500.691 178.506 477.846 178.506 477.846Z" fill="#E27161"/>
<path d="M477.926 654.099C477.094 651.165 476.345 647.857 475.731 644.123C471.237 616.785 480.225 580.084 491.085 541.886C501.945 503.687 505.857 466.435 505.857 466.435C508.811 493.056 480.922 572.511 476.698 614.34C475.055 630.61 475.794 643.519 477.926 654.099Z" fill="#E27161"/>
</svg>
