<svg width="604" height="651" viewBox="0 0 604 651" fill="none" xmlns="http://www.w3.org/2000/svg">
<path d="M519.179 443.782L520.996 467.964L529.218 577.399H542.344L544.225 461.445L544.669 433.744L519.179 443.782Z" fill="#FF904F"/>
<path opacity="0.43" d="M519.179 443.782L520.996 467.964C528.684 462.017 538.074 461.191 544.225 461.445L544.67 433.743L519.179 443.782Z" fill="#B0574A"/>
<path d="M111.379 567.36H121.418L138.115 482.184L143.821 453.046L120.642 449.183L118.736 473.454L111.379 567.36Z" fill="#FF904F"/>
<path opacity="0.43" d="M118.736 473.454C124.518 475.271 131.634 478.08 138.115 482.184L143.822 453.046L120.644 449.183L118.736 473.454Z" fill="#B0574A"/>
<path d="M277.438 495.526L279.979 518.717L294.427 650.77H308.328L303.78 513.431L302.927 487.8L277.438 495.526Z" fill="#FF904F"/>
<path opacity="0.43" d="M277.438 495.526L279.979 518.717C286.51 515.388 294.847 512.643 303.781 513.431L302.928 487.801L277.438 495.526Z" fill="#B0574A"/>
<path d="M342.307 480.087L343.095 491.155L344.632 512.516H354.671L357.035 489.808L358.534 475.449L342.307 480.087Z" fill="#C4361D"/>
<path opacity="0.43" d="M342.307 480.087L343.095 491.155C346.717 489.427 351.952 488.537 357.035 489.808L358.535 475.449L342.307 480.087Z" fill="#B0574A"/>
<path d="M572.472 410.57C581.74 397.183 578.651 357.02 577.621 321.492C576.591 285.964 583.285 272.577 592.038 264.853C600.791 257.129 606.97 234.474 600.277 213.878C593.583 193.282 574.017 187.618 546.213 187.618C518.408 187.618 318.628 187.618 318.628 187.618L317.598 352.386L572.472 410.57Z" fill="#9BD3FA"/>
<g opacity="0.25">
<path d="M317.973 290.953C335.369 320.052 357.772 346.14 384.025 367.552L572.473 410.566C581.737 397.185 578.649 357.018 577.619 321.488C576.59 285.959 583.286 272.578 592.042 264.852C600.797 257.126 606.973 234.469 600.276 213.883C593.58 193.285 574.011 187.617 546.208 187.617C543.841 187.617 541.59 188.784 540.339 190.794C524.566 216.13 536.676 254.998 518.556 280.113C503.371 301.156 472.352 303.99 447.535 296.442C400.95 282.248 367.125 235.816 364.571 187.617H318.621L317.973 290.953Z" fill="#31ADFF"/>
</g>
<path d="M572.473 410.57C575.562 368.091 542.351 266.913 550.847 231.385C559.343 195.857 583.801 210.274 587.92 222.117C592.039 233.96 592.554 251.466 576.077 263.309C576.077 263.309 570.291 293.036 576.077 334.365C585.989 405.163 572.473 410.57 572.473 410.57Z" fill="#B8DFFA"/>
<path d="M358.532 316.343C358.532 316.343 367.027 257.645 346.173 216.71C325.319 175.775 315.279 141.792 312.962 91.59C310.645 41.387 305.239 15.127 274.346 6.63199C243.452 -1.86401 75.3286 -1.96098 50.6136 4.99002C25.8986 11.941 51.1366 195.857 75.8526 246.06C100.568 296.263 217.965 344.921 272.03 342.604C326.094 340.286 358.532 316.343 358.532 316.343Z" fill="#B8DFFA"/>
<g opacity="0.25">
<path d="M180.253 133.693C181.688 124.851 175.684 116.52 166.842 115.085C158 113.65 149.669 119.654 148.234 128.496C146.799 137.338 152.803 145.669 161.645 147.104C170.487 148.539 178.818 142.535 180.253 133.693Z" fill="#59BCFF"/>
<path d="M260.523 144.549C268.799 141.121 272.729 131.633 269.301 123.357C265.873 115.081 256.385 111.151 248.109 114.579C239.833 118.007 235.903 127.495 239.332 135.771C242.76 144.047 252.247 147.977 260.523 144.549Z" fill="#59BCFF"/>
</g>
<path d="M173.799 140.139C180.133 133.805 180.133 123.536 173.799 117.202C167.466 110.868 157.196 110.868 150.862 117.202C144.529 123.536 144.529 133.805 150.862 140.139C157.196 146.473 167.466 146.473 173.799 140.139Z" fill="#8CD0FF"/>
<path d="M252.416 143.357C261.373 143.357 268.635 136.096 268.635 127.138C268.635 118.181 261.373 110.919 252.416 110.919C243.458 110.919 236.197 118.181 236.197 127.138C236.197 136.096 243.458 143.357 252.416 143.357Z" fill="#8CD0FF"/>
<g opacity="0.25">
<path d="M75.8495 246.058C100.565 296.264 217.968 344.92 272.024 342.607C326.093 340.282 358.535 316.341 358.535 316.341C358.535 316.341 367.023 257.646 346.171 216.704C338.801 202.243 332.789 188.659 327.986 174.923C333.869 192.942 340.948 210.478 343.083 229.297C345.714 252.462 343.21 277.318 325.814 292.833C304.339 311.97 271.567 311.347 243.878 303.571C195.26 289.923 106.183 255.411 80.2726 212.066C54.3626 168.722 51.1345 195.852 75.8495 246.058Z" fill="#2FA5F5"/>
</g>
<path d="M105.201 221.344C73.5354 188.905 60.4055 116.305 65.0395 86.1829C69.6735 56.0609 82.0305 25.167 59.6335 8.17599C37.2355 -8.81601 27.1944 45.249 30.2844 92.362C33.3744 139.475 46.5035 215.938 61.1785 222.889C75.8535 229.84 105.201 221.344 105.201 221.344Z" fill="#8CD0FF"/>
<path d="M293.655 497.073C293.655 497.073 532.31 451.504 555.48 441.464C578.65 431.423 584.829 385.083 573.244 354.961C561.659 324.839 533.082 317.116 487.513 311.709C441.944 306.303 273.573 318.66 273.573 318.66L293.655 497.073Z" fill="#8CD0FF"/>
<path d="M45.7305 293.173C45.7305 293.173 58.8605 315.571 71.2185 372.725C83.5755 429.879 79.7145 438.375 92.8445 446.87C105.974 455.365 285.932 517.154 293.656 497.073L247.314 300.896L45.7305 293.173Z" fill="#40B2FF"/>
<g opacity="0.25">
<path d="M262.569 464.012C243.101 471.179 221.258 469.133 200.951 464.457C153.312 453.465 109.192 428.038 75.3154 392.814C82.8504 432.105 81.4404 439.487 92.8384 446.871C104.185 454.216 239.9 501.283 281.719 501.067C286.103 492.553 287.576 482.604 287.83 472.463L249.938 312.06C246.914 308.045 243.635 304.22 240.103 300.623L45.7334 293.177C45.7334 293.177 49.1265 298.972 54.0945 312.187C79.9665 316.19 106.461 315.694 132.613 318.02C162.64 320.676 193.709 327.754 216.582 347.399C249.088 375.303 257.499 421.011 262.569 464.012Z" fill="#2A94DB"/>
</g>
<path d="M296.879 341.07C295.937 318.931 292.589 279.675 281.184 249.437C272.049 225.216 248.743 209.29 222.856 209.233C169.078 209.113 46.6803 209.242 36.4623 212.849C23.3323 217.483 -7.56155 239.109 1.70645 271.547C10.9744 303.986 34.1454 306.303 61.9494 304.758C89.7534 303.213 163.899 306.303 195.565 313.254C227.231 320.205 242.678 324.067 248.085 358.05C253.491 392.033 240.361 479.309 263.532 493.983C286.703 508.657 293.654 497.072 293.654 497.072C299.561 491.165 302.727 483.055 302.383 474.708L296.879 341.07Z" fill="#9BD3FA"/>
<path opacity="0.25" d="M21.8864 264.892C40.0884 278.108 64.2373 279.846 86.6193 277.611C109.001 275.376 136.691 274.857 159.183 275.044C202.238 275.401 238.803 293.866 261.553 330.421C269.527 304.957 287.385 290.55 280.867 264.675C273.319 234.711 249.487 217.119 222.998 213.897C189.146 209.78 107.632 211.041 80.2714 212.067C61.4564 212.773 48.3313 214.143 37.4943 212.577C52.9833 209.237 170.468 209.117 222.856 209.234C248.742 209.292 272.048 225.218 281.183 249.439C292.588 279.677 295.936 318.933 296.879 341.072L302.383 474.71C302.727 483.057 299.561 491.167 293.654 497.074C293.654 497.074 286.703 508.659 263.532 493.985C240.361 479.31 253.491 392.035 248.085 358.052C242.679 324.069 227.231 320.207 195.565 313.256C163.898 306.305 89.7534 303.215 61.9494 304.76C34.1454 306.305 10.9744 303.988 1.70645 271.549C-1.57955 260.047 0.196416 249.913 4.42642 241.405C7.79342 250.657 13.9634 259.139 21.8864 264.892Z" fill="#2A94DB"/>
<g opacity="0.25">
<path d="M286.764 435.815L293.651 497.076C293.651 497.076 532.305 451.508 555.483 441.469C578.648 431.418 584.825 385.087 573.249 354.958C561.66 324.842 533.08 317.116 487.512 311.703C459.963 308.437 387.544 311.665 334.568 314.702C380.047 313.914 427.521 317.409 471.971 319.061C486.622 319.608 501.63 320.446 515.137 326.164C528.645 331.869 540.565 343.497 542.573 358.034C544.504 371.91 537.019 385.774 526.548 395.101C516.077 404.428 502.925 410.045 490.015 415.521C453.494 430.998 404.127 437.581 364.734 442.168C334.695 445.663 309.866 447.162 286.764 435.815Z" fill="#2A94DB"/>
</g>
<path d="M293.655 497.073C310.432 490.591 293.655 397.44 290.179 334.88C286.703 272.32 280.525 243.743 246.542 237.564C212.559 231.385 210.24 278.498 233.411 296.262C256.582 314.026 255.038 328.701 261.217 366.546C267.395 404.391 259.672 510.203 293.655 497.073Z" fill="#B8DFFA"/>
<path d="M533.197 349.903C551.112 366.376 304.553 414.983 300.886 389.607C297.218 364.231 515.283 333.43 533.197 349.903Z" fill="#96D4FF"/>
<path d="M205.234 224.113C180.984 237.303 23.1655 233.262 33.2295 221.368C40.8835 212.323 229.484 210.923 205.234 224.113Z" fill="#AAD9FA"/>
<path d="M515.233 198.534C530.64 206.424 502.659 210.204 493.919 211.494C457.186 216.919 387.607 218.623 381.203 203.374C375.398 189.55 499.826 190.644 515.233 198.534Z" fill="#AAD9FA"/>
<path d="M295.003 37.3289C307.756 56.2919 81.8585 65.92 83.2735 40.409C84.6885 14.898 282.25 18.3659 295.003 37.3289Z" fill="#C3E3FA"/>
</svg>
