<svg width="554" height="740" viewBox="0 0 554 740" fill="none" xmlns="http://www.w3.org/2000/svg">
<path d="M505.821 376.816L482.018 377.666L481.44 353.284L478.193 215.718L301.368 199.991C301.368 199.991 326.517 192.588 372.636 191.124C381.787 190.841 391.764 190.782 402.532 191.065C451.709 192.352 480.967 198.988 493.034 202.695C496.919 203.888 499.032 204.785 499.445 205.092C499.598 205.21 499.776 206.733 499.976 209.402C500.98 222.815 502.455 265.215 503.672 303.99C504.25 322.268 504.758 339.742 505.148 352.978C505.562 367.406 505.821 376.816 505.821 376.816Z" fill="#FF904F"/>
<path opacity="0.51" d="M499.977 209.402C495.726 210.89 483.506 212.625 481.026 212.389C478.05 212.106 477.625 205.872 477.625 205.872C482.525 203.617 488.594 202.861 493.033 202.696C496.918 203.889 499.031 204.786 499.444 205.093C499.599 205.21 499.776 206.733 499.977 209.402Z" fill="#FFD5BD"/>
<path opacity="0.34" d="M505.148 352.977L481.439 353.284L478.192 215.718L301.367 199.991C301.367 199.991 326.516 192.588 372.635 191.124C373.757 191.915 379.058 192.517 390.984 192.765C442.204 193.828 481.947 204.171 483.789 207.784C485.631 211.397 488.11 283.374 488.961 292.725C489.752 301.451 499.198 308.204 503.673 303.989C504.251 322.267 504.759 339.742 505.148 352.977Z" fill="#ED6551"/>
<path d="M487.685 376.249L474.792 377.241C474.792 377.241 474.497 359.578 474.025 336.317C473.092 291.591 471.51 226.203 470.117 225.919C467.992 225.494 435.262 216.568 388.505 214.017C341.749 211.467 303.918 219.543 303.918 219.543L301.368 199.99C301.368 199.99 311.947 197.062 331.016 195.031C346.767 193.366 368.303 192.304 394.456 194.039C452.264 197.865 480.601 206.507 482.585 207.641C483.848 208.361 485.584 276.926 486.658 326.386C486.752 330.211 486.823 333.931 486.906 337.485C487.379 359.956 487.685 376.249 487.685 376.249Z" fill="#DE572A"/>
<path opacity="0.43" d="M486.906 337.486L474.024 336.317C473.091 291.591 471.509 226.203 470.116 225.919C467.991 225.494 435.261 216.568 388.504 214.017C341.748 211.467 303.917 219.543 303.917 219.543L301.367 199.99C301.367 199.99 311.946 197.062 331.015 195.031C322.573 199.766 324.072 210.191 349.54 210.404C375.256 210.617 391.621 210.829 428.176 215.505C464.731 220.181 471.32 221.456 474.082 224.856C476.845 228.256 475.357 300.729 478.12 308.805C479.49 312.831 483.233 320.105 486.657 326.386C486.753 330.213 486.824 333.932 486.906 337.486Z" fill="#B0574A"/>
<path d="M497.816 205.021C496.611 204.195 489.386 202.329 483.718 206.934C483.718 206.934 482.443 208.776 487.543 209.059C492.643 209.342 500.296 206.721 497.816 205.021Z" fill="#FFD5BD"/>
<path d="M300.942 566.393L312.844 475.005H296.267L291.166 561.292L300.942 566.393Z" fill="#AB270F"/>
<path d="M316.245 560.442L300.942 566.393L312.844 475.005L329.847 469.904L316.245 560.442Z" fill="#D9563F"/>
<path d="M526.224 404.87L538.126 644.604L552.862 638.653L551.586 400.974L526.224 404.87Z" fill="#FF904F"/>
<path d="M502.421 409.688L519.99 636.953L538.126 644.604L526.224 404.87L502.421 409.688Z" fill="#C4361D"/>
<path opacity="0.43" d="M538.126 644.604L523.391 632.49L512.481 462.749L529.341 466.717L526.224 404.87L502.421 409.688L519.99 636.953L538.126 644.604Z" fill="#B0574A"/>
<path d="M249.085 506.885L523.391 450.21L522.54 405.154L245.401 457.011L249.085 506.885Z" fill="#DE572A"/>
<path opacity="0.43" d="M523.391 450.21L517.865 418.26L270.48 464.45L261.501 504.281L249.085 506.885L245.401 457.011L522.54 405.154L523.391 450.21Z" fill="#B0574A"/>
<path d="M220.181 460.128L225.282 739.818L248.802 731.6L256.736 454.177L220.181 460.128Z" fill="#FF904F"/>
<path d="M79.037 384.833C78.848 408.542 77.714 462.879 71.693 505.468C64.018 559.734 51.042 617.188 50.192 620.895C50.168 621.025 50.157 621.084 50.157 621.084L31.454 625.618C31.454 625.618 34.004 520.061 39.105 482.231C44.206 444.401 38.68 359.814 36.555 339.836C34.43 319.858 4.25 32.5181 4.25 32.5181L5.73798 22.104L33.154 13.5321C42.789 55.4711 79.061 372.85 79.061 372.85C79.061 372.85 79.097 377.289 79.037 384.833Z" fill="#F57931"/>
<path opacity="0.43" d="M77.148 445.818C76.723 453.505 76.203 461.392 75.566 469.279L54.407 447.943L77.148 445.818Z" fill="#B0574A"/>
<path opacity="0.43" d="M79.037 384.833C78.931 398.069 78.529 420.857 77.148 445.817C76.723 453.504 76.203 461.391 75.566 469.278C74.586 481.64 73.323 493.979 71.693 505.467C64.018 559.733 51.042 617.187 50.192 620.894C51.172 615.344 73.192 490.2 70.701 476.066C68.151 461.614 53.982 456.797 53.982 456.797C53.982 456.797 50.298 486.268 43.922 540.676C37.747 593.383 31.831 623.681 31.465 625.523L47.322 378.303L79.037 384.833Z" fill="#B0574A"/>
<path d="M206.012 505.468C206.012 505.468 172.007 490.166 117.883 470.046C63.759 449.926 54.407 447.943 54.407 447.943L53.84 401.47L207.145 449.643L206.012 505.468Z" fill="#DE572A"/>
<path opacity="0.43" d="M203.604 479.185L191.135 477.201L192.34 492.22L186.898 497.231L145.292 480.458L146.362 452.548L59.367 423.644L54.408 447.943L53.841 401.47L207.146 449.643L203.604 479.185Z" fill="#B0574A"/>
<path d="M209.767 729.191L225.282 739.818L220.181 460.128L201.195 455.027L209.767 729.191Z" fill="#C4361D"/>
<path d="M31.454 625.618C31.454 625.618 45.056 521.337 49.023 470.329C52.99 419.322 45.622 339.41 38.255 289.537C30.887 239.663 5.73798 22.103 5.73798 22.103L0 26.566C0 26.566 20.686 230.595 27.487 299.738C34.288 368.881 35.988 413.087 32.588 481.664C29.188 550.241 22.67 621.084 22.67 621.084L31.454 625.618Z" fill="#C4361D"/>
<path d="M327.296 294.071L302.218 299.03L266.371 18.774L288.191 23.166L300.494 108.426L297.967 130.069L302.749 123.988L327.296 294.071Z" fill="#F57931"/>
<path d="M33.155 13.531C33.155 13.531 66.593 0 146.079 0C225.565 0 266.371 18.7731 266.371 18.7731L302.218 299.029L68.01 333.034L33.155 13.531Z" fill="#F57931"/>
<path opacity="0.43" d="M248.802 731.6L247.527 469.267L226.274 475.643L225.282 739.818L220.181 460.128L256.736 454.177L248.802 731.6Z" fill="#B0574A"/>
<path d="M37.681 59.411C36.724 51.729 41.273 44.3941 48.607 41.9181C65.203 36.3151 99.103 28.0541 154.722 28.0541C214.345 28.0541 248.511 37.9741 263.366 43.7581C268.846 45.8921 272.763 50.786 273.627 56.603L309.444 297.754L71.623 331.759L37.681 59.411Z" fill="#FEA096"/>
<path opacity="0.43" d="M33.58 96.6311C29.982 92.2151 38.681 225.849 42.081 261.554C45.482 297.259 57.95 318.795 61.35 318.795C64.751 318.795 46.048 111.933 33.58 96.6311Z" fill="#B0574A"/>
<path d="M303.493 292.938L76.794 328.643C76.794 328.643 65.601 271.897 58.233 194.253C52.92 138.24 45.906 88.1771 42.411 64.6101C41.159 56.1921 46.331 48.151 54.513 45.801C74.55 40.063 113.785 31.066 160.105 32.234C207.853 33.438 241.398 41.88 256.912 46.722C262.886 48.576 267.35 53.547 268.542 59.686C268.542 59.686 268.566 59.78 268.601 59.969C268.625 60.134 268.66 60.3001 268.695 60.4651C268.719 60.5601 268.742 60.6661 268.754 60.7721C268.778 60.9021 268.801 61.0321 268.837 61.1621C268.955 61.7521 269.097 62.52 269.274 63.453C274.091 88.378 284.375 143.246 289.889 185.256C297.259 241.364 303.493 292.938 303.493 292.938Z" fill="#FECDC9"/>
<path opacity="0.35" d="M303.493 292.938L76.794 328.643C76.794 328.643 65.601 271.897 58.233 194.253C52.92 138.24 45.906 88.1771 42.411 64.6101C41.159 56.1921 46.331 48.151 54.513 45.801C42.411 64.61 76.085 268.922 195.669 277.14C306.09 284.732 274.718 92.877 269.275 63.453C274.092 88.378 284.376 143.246 289.89 185.256C297.259 241.364 303.493 292.938 303.493 292.938Z" fill="#FECDC9"/>
<path d="M542.802 334.523C542.802 334.523 514.748 321.559 461.191 309.232C407.633 296.905 303.494 292.938 303.494 292.938C303.494 292.938 191.278 298.605 122.418 312.632C53.558 326.659 51.291 332.893 51.291 332.893C51.291 332.893 202.754 395.094 210.405 395.094C218.056 395.094 494.345 351.738 513.898 347.062C533.45 342.386 542.802 334.523 542.802 334.523Z" fill="#FFD7D4"/>
<path d="M216.072 432.428C215.789 458.782 211.963 460.27 211.963 460.27C211.963 460.27 179.659 450.777 179.233 447.518C178.808 444.259 182.208 443.834 182.208 443.834C180.366 441.567 179.587 437.387 179.587 437.387L159.172 438.355L152.595 438.662C152.595 438.662 143.031 435.899 111.789 425.698C80.547 415.497 69.921 408.908 63.97 408.271C58.019 407.633 50.793 408.483 50.368 405.508C49.943 402.533 53.839 401.47 53.839 401.47C53.839 401.47 46.33 387.443 45.905 368.103C45.48 348.763 53.698 340.97 53.698 340.97C53.698 340.97 53.686 340.958 53.651 340.934C53.627 340.922 53.604 340.899 53.568 340.875C52.612 340.096 46.578 334.983 51.289 332.893C56.39 330.626 61.774 336.86 88.411 344.228C115.048 351.596 151.32 364.348 151.32 364.348L156.869 363.876L188.158 361.231L188.725 366.332C188.725 366.332 178.098 369.237 179.799 373.487C181.499 377.738 216.071 387.089 216.071 387.089C216.071 387.089 216.356 406.075 216.072 432.428Z" fill="#FFBBB5"/>
<path d="M167.473 374.549L164.923 495.408L154.013 490.449C154.013 490.449 149.196 256.949 148.771 254.399C148.771 254.399 130.352 244.481 92.947 239.664C55.542 234.847 16.719 241.081 16.719 241.081C16.719 241.081 15.09 237.114 14.381 232.863C13.673 228.613 13.602 222.52 13.602 222.52C13.602 222.52 53.558 211.043 102.44 220.395C151.322 229.746 157.698 236.972 157.698 236.972L158.478 238.413L167.473 374.549Z" fill="#DE572A"/>
<path d="M192.34 492.22L164.924 495.408C164.924 495.408 161.134 267.871 158.206 239.77C158.029 238.117 157.864 237.161 157.698 236.971C157.486 236.723 157.155 236.452 156.73 236.156C151.216 232.366 128.475 224.727 102.44 220.393C74.386 215.717 52.283 216.992 13.602 222.518C13.602 222.518 36.791 216.059 69.533 214.088C80.455 213.439 92.439 213.273 104.99 214.017C148.925 216.626 173.625 227.064 180.781 231.61C181.797 232.247 182.458 232.779 182.776 233.145C182.941 233.334 183.118 234.55 183.319 236.652C185.326 258.366 188.951 375.234 190.947 443.172C191.797 472.148 192.34 492.22 192.34 492.22Z" fill="#FF904F"/>
<path opacity="0.43" d="M225.282 739.818L213.238 726.003L208.421 477.768L220.606 481.381L220.181 460.128L201.195 455.027L209.767 729.191L225.282 739.818Z" fill="#B0574A"/>
<path opacity="0.43" d="M552.862 638.653L548.469 415.284L531.467 421.235L538.126 644.604L526.224 404.87L551.586 400.974L552.862 638.653Z" fill="#B0574A"/>
<path opacity="0.34" d="M192.34 492.22L164.924 495.408C164.924 495.408 161.134 267.871 158.206 239.77C158.029 238.117 157.864 237.161 157.698 236.971C157.486 236.723 157.155 236.452 156.73 236.156C151.216 232.366 128.475 224.727 102.44 220.393C74.386 215.717 52.283 216.992 13.602 222.518C13.602 222.518 36.791 216.059 69.533 214.088C60.028 215.245 47.772 216.957 67.726 215.93C96.63 214.442 119.158 220.818 119.158 220.818L111.507 220.393C154.438 228.469 159.822 237.75 159.822 237.75C164.073 250.643 170.945 472.171 171.582 473.233C172.22 474.296 185.68 489.244 186.317 487.543C186.955 485.843 186.105 456.726 186.105 456.726C179.516 452.9 179.233 447.516 179.233 447.516L190.946 443.171C191.797 472.148 192.34 492.22 192.34 492.22Z" fill="#ED6551"/>
<path d="M179.8 373.487C181.217 369.52 193.402 365.552 193.402 365.552L235.058 377.17L210.829 385.529C210.829 385.529 199.069 385.529 189.93 382.128C180.791 378.727 179.8 373.487 179.8 373.487Z" fill="#FFD7D4"/>
<path d="M216.072 432.428C215.789 458.782 211.963 460.27 211.963 460.27C211.963 460.27 179.659 450.777 179.233 447.518C178.808 444.259 182.208 443.834 182.208 443.834C180.366 441.567 179.587 437.387 179.587 437.387C179.587 437.387 179.54 435.451 179.481 432.239C179.481 432.227 179.481 432.227 179.481 432.227C179.174 416.559 178.637 371.032 179.995 373.641L179.8 373.486C181.335 377.311 209.507 385.27 215.104 386.816C215.73 386.993 216.072 387.088 216.072 387.088C216.072 387.088 216.155 392.295 216.178 401.044C216.214 409.003 216.202 419.877 216.072 432.428Z" fill="#FFBBB5"/>
<path opacity="0.32" d="M216.072 432.428C215.789 458.782 211.963 460.27 211.963 460.27C211.963 460.27 179.659 450.777 179.233 447.518C178.808 444.259 182.208 443.834 182.208 443.834C180.366 441.567 179.587 437.387 179.587 437.387C179.587 437.387 179.54 435.451 179.481 432.239C186.14 439.949 202.092 450.363 200.132 435.262C198.007 418.897 204.808 387.868 204.808 387.868C201.407 386.168 178.879 378.517 179.8 373.487C181.335 377.312 209.507 385.271 215.104 386.817L216.178 401.045C216.214 409.003 216.202 419.877 216.072 432.428Z" fill="#FECDC9"/>
<path d="M553.57 399.203C552.862 402.887 547.903 402.533 547.903 402.533C547.903 402.533 496.471 414.222 448.439 422.298C400.407 430.374 227.55 461.12 223.157 461.829C218.765 462.537 211.539 462.254 209.555 458.57C207.571 454.886 211.68 454.744 211.68 454.744C211.68 454.744 208.279 452.477 205.446 428.957C202.612 405.437 210.83 385.53 210.83 385.53L210.193 385.27C206.663 383.582 210.181 378.788 219.048 379.862C228.399 380.996 280.682 376.603 370.228 363.568C459.774 350.533 538.977 337.498 542.803 334.522C546.628 331.547 550.879 331.972 551.091 335.585C551.209 337.498 550.583 338.383 549.969 338.773C549.473 339.115 548.977 339.127 548.906 339.127C548.894 339.127 548.894 339.127 548.894 339.127C548.894 339.127 548.894 339.139 548.906 339.162C549.083 340.036 552.271 356.046 551.444 373.131C550.594 390.7 548.044 395.517 548.044 395.517C548.044 395.517 554.278 395.519 553.57 399.203Z" fill="#FECDC9"/>
<path opacity="0.51" d="M183.319 236.653C180.745 237.385 170.095 240.16 158.205 239.77C158.028 238.117 157.863 237.161 157.697 236.971C157.485 236.723 157.154 236.452 156.729 236.156C161.972 233.228 175.939 231.043 180.78 231.61C181.796 232.247 182.457 232.779 182.775 233.145C182.941 233.335 183.118 234.551 183.319 236.653Z" fill="#FFD5BD"/>
<path d="M159.539 236.44C159.539 236.44 158.901 237.255 162.302 237.467C165.703 237.68 181.288 234.987 181.784 234.562C182.28 234.137 182.067 233.074 177.746 232.933C173.424 232.792 162.444 234.988 159.539 236.44Z" fill="#FFD5BD"/>
<path opacity="0.43" d="M164.923 495.408L154.013 490.449C154.013 490.449 149.196 256.949 148.771 254.399C148.771 254.399 130.352 244.481 92.947 239.664C55.542 234.847 16.719 241.081 16.719 241.081C16.719 241.081 15.09 237.114 14.381 232.863C13.673 228.613 13.602 222.52 13.602 222.52C13.602 222.52 16.719 233.572 23.945 235.909C23.945 235.909 54.549 230.525 91.813 234.492C91.813 234.492 73.783 234.634 65.92 235.484C65.92 235.484 104.069 235.909 129.785 244.835C155.501 253.761 151.888 251.423 152.313 256.949C152.738 262.475 155.926 475.855 156.776 481.593C157.626 487.332 164.923 495.408 164.923 495.408Z" fill="#B0574A"/>
<path d="M261.501 504.281L377.595 476.493L453.256 460.341L523.391 450.21L261.501 504.281Z" fill="#E27161"/>
<path opacity="0.43" d="M39.247 17.0031C50.331 11.4611 96.6299 0.851071 160.389 3.82607C224.148 6.80107 255.602 20.403 261.553 23.379C267.504 26.354 221.597 23.8041 154.013 22.5291C86.429 21.2531 32.446 20.4031 39.247 17.0031Z" fill="#B0574A"/>
<path d="M11.76 76.228L20.828 94.364L15.444 108.532L11.76 76.228Z" fill="#C4361D"/>
<path opacity="0.43" d="M280.681 49.5911C271.131 52.3761 311.285 281.957 315.253 285.358C319.22 288.759 305.335 167.971 301.084 149.835C296.834 131.698 284.082 48.5991 280.681 49.5911Z" fill="#B0574A"/>
<path opacity="0.53" d="M549.969 338.773C549.379 338.974 548.989 339.104 548.906 339.127C548.894 339.127 548.894 339.127 548.894 339.127C548.894 339.127 498.312 353.933 375.328 371.502C258.278 388.223 210.83 385.529 210.83 385.529C206.296 384.112 209.697 378.728 219.048 379.862C228.399 380.996 280.682 376.603 370.228 363.568C459.774 350.533 538.977 337.498 542.803 334.522C546.628 331.547 550.879 331.972 551.091 335.585C551.208 337.498 550.583 338.384 549.969 338.773Z" fill="#FECDC9"/>
<path opacity="0.53" d="M553.57 399.203C552.862 402.887 547.903 402.533 547.903 402.533C547.903 402.533 496.471 414.222 448.439 422.298C400.407 430.374 227.55 461.12 223.157 461.829C218.765 462.537 211.539 462.254 209.555 458.57C207.571 454.886 211.68 454.744 211.68 454.744C211.68 454.744 208.279 452.477 205.446 428.957C202.612 405.437 210.83 385.53 210.83 385.53C210.83 385.53 195.245 441 224.574 449.714C245.729 455.999 531.467 399.557 540.394 394.031C549.178 388.588 548.919 340.662 548.907 339.163C549.084 340.037 552.272 356.047 551.445 373.132C550.595 390.701 548.045 395.518 548.045 395.518C548.045 395.518 554.278 395.519 553.57 399.203Z" fill="#FECDC9"/>
<path opacity="0.42" d="M159.173 438.356L152.596 438.663C152.596 438.663 143.032 435.9 111.79 425.699C80.548 415.498 69.922 408.909 63.971 408.272C58.02 407.634 50.794 408.484 50.369 405.509C49.944 402.534 53.8399 401.471 53.8399 401.471C81.7519 401.683 133.61 428.179 139.277 428.462C144.944 428.745 145.228 418.26 143.527 400.975C141.827 383.689 145.086 370.654 145.086 370.654C100.242 359.177 53.698 340.971 53.698 340.971C53.698 340.971 53.686 340.959 53.651 340.935C53.627 340.923 53.604 340.9 53.568 340.876C52.612 340.097 46.578 334.984 51.289 332.894C56.39 330.627 61.774 336.861 88.411 344.229C115.048 351.597 151.32 364.349 151.32 364.349L156.869 363.877L159.173 438.356Z" fill="#FECDC9"/>
<path opacity="0.27" d="M63.05 59.2251C77.219 49.0241 161.097 25.7871 260.278 58.6581C260.278 58.6581 268.357 113.991 182.634 121.567C60.783 132.336 63.05 59.2251 63.05 59.2251Z" fill="#FECDC9"/>
</svg>
